<svg width="25" height="24" viewBox="0 0 25 24" fill="none" xmlns="http://www.w3.org/2000/svg">
<g clip-path="url(#clip0)">
<path d="M0.569531 0H24.5555C24.5594 0 24.5625 0.003148 24.5625 0.00703125V23.993C24.5625 23.9969 24.5594 24 24.5555 24H14.4375V15.4688H17.2313L17.7656 12H14.4375V9.75C14.4375 8.80313 14.9016 7.875 16.3922 7.875H17.9062V4.92188C17.9062 4.92188 16.5328 4.6875 15.2203 4.6875C12.4781 4.6875 10.6875 6.34688 10.6875 9.35625V12H7.64062V15.4688H10.6875V24H0.569531C0.565648 24 0.5625 23.9969 0.5625 23.993V0.00703125C0.5625 0.003148 0.565648 0 0.569531 0Z" fill="white"/>
</g>
<defs>
<clipPath id="clip0">
<rect x="0.5625" width="24" height="24" rx="6" fill="white"/>
</clipPath>
</defs>
</svg>
