<svg width="528" height="528" viewBox="0 0 528 528" fill="none" xmlns="http://www.w3.org/2000/svg">
<path d="M436.456 194.323C417.977 148.585 382.085 112.061 336.676 92.7863L319.395 133.498C354.007 148.189 381.364 176.029 395.45 210.891L436.456 194.323Z" fill="url(#paint0_linear)" fill-opacity="0.3"/>
<path d="M395.66 210.806C381.552 175.888 354.151 148.004 319.484 133.288" stroke="#ADFFF7" stroke-width="2"/>
<path d="M437.383 193.949C418.805 147.965 382.72 111.244 337.067 91.8657" stroke="#ADFFF7" stroke-width="2"/>
<path d="M374.957 148.682L380.089 153.815L381.334 152.57L378.31 149.547L378.359 149.498L380.441 149.519C383.271 149.649 384.343 149.371 385.162 148.552C386.41 147.304 386.273 145.402 384.729 143.859C383.218 142.348 381.277 142.214 379.868 143.631L381.312 145.076C381.998 144.383 382.856 144.397 383.513 145.054C384.146 145.687 384.223 146.552 383.59 147.185C383.017 147.758 382.272 147.8 380.989 147.775L376.053 147.586L374.957 148.682Z" fill="white"/>
<defs>
<linearGradient id="paint0_linear" x1="395.522" y1="132.478" x2="363.349" y2="164.652" gradientUnits="userSpaceOnUse">
<stop stop-color="#00E0CA" stop-opacity="0.6"/>
<stop offset="1" stop-color="#00FFE6"/>
</linearGradient>
</defs>
</svg>
