<svg width="527" height="527" viewBox="0 0 527 527" fill="none" xmlns="http://www.w3.org/2000/svg">
<path d="M190.324 434.214C235.733 453.489 286.939 453.936 332.677 435.456L316.109 394.449C281.246 408.535 242.216 408.194 207.605 393.502L190.324 434.214Z" fill="url(#paint0_linear)" fill-opacity="0.3"/>
<path d="M207.516 393.712C242.183 408.427 281.276 408.768 316.194 394.66" stroke="#ADFFF7" stroke-width="2"/>
<path d="M189.933 435.134C235.586 454.513 287.067 454.962 333.051 436.383" stroke="#ADFFF7" stroke-width="2"/>
<path d="M262.968 422.861C260.701 422.861 259.159 424.337 259.164 426.396C259.159 428.344 260.522 429.746 262.356 429.746C263.251 429.746 264.022 429.373 264.38 428.871H264.439L264.176 431.422H259.726V433.182H265.951L266.433 427.812L264.519 427.469C264.206 427.892 263.599 428.155 262.998 428.155C261.973 428.15 261.238 427.41 261.238 426.341C261.238 425.282 261.958 424.551 262.968 424.551C263.823 424.551 264.514 425.088 264.564 425.878H266.652C266.612 424.119 265.076 422.861 262.968 422.861Z" fill="white"/>
<defs>
<linearGradient id="paint0_linear" x1="263" y1="449" x2="263" y2="403.5" gradientUnits="userSpaceOnUse">
<stop stop-color="#00E0CA" stop-opacity="0.6"/>
<stop offset="1" stop-color="#00FFE6"/>
</linearGradient>
</defs>
</svg>
