<svg width="528" height="528" viewBox="0 0 528 528" fill="none" xmlns="http://www.w3.org/2000/svg">
<path d="M91.5438 333.677C110.023 379.415 145.915 415.939 191.324 435.214L208.605 394.502C173.993 379.811 146.636 351.971 132.551 317.109L91.5438 333.677Z" fill="url(#paint0_linear)" fill-opacity="0.3"/>
<path d="M132.34 317.194C146.448 352.112 173.849 379.996 208.516 394.712" stroke="#ADFFF7" stroke-width="2"/>
<path d="M90.6167 334.051C109.195 380.035 145.28 416.756 190.933 436.134" stroke="#ADFFF7" stroke-width="2"/>
<path d="M150.882 376.959C149.286 375.349 147.142 375.307 145.679 376.777C144.326 378.123 144.294 380.039 145.57 381.315C146.361 382.106 147.441 382.426 148.4 382.113L148.45 382.162C147.04 383.558 145.676 383.938 144.737 382.999C144.185 382.447 144.09 381.748 144.477 381.129L142.976 379.628C141.935 380.957 141.995 382.865 143.433 384.303C145.212 386.082 147.796 385.783 150.221 383.372C152.861 380.739 152.355 378.447 150.882 376.959ZM149.694 378.162C150.397 378.865 150.351 379.951 149.648 380.654C148.945 381.35 147.845 381.389 147.145 380.689C146.442 379.986 146.481 378.921 147.198 378.211C147.915 377.487 148.991 377.459 149.694 378.162Z" fill="white"/>
<defs>
<linearGradient id="paint0_linear" x1="132.478" y1="395.522" x2="164.652" y2="363.348" gradientUnits="userSpaceOnUse">
<stop stop-color="#00E0CA" stop-opacity="0.6"/>
<stop offset="1" stop-color="#00FFE6"/>
</linearGradient>
</defs>
</svg>
