<svg width="24" height="19" viewBox="0 0 24 19" fill="none" xmlns="http://www.w3.org/2000/svg">
<path d="M3.5803 14.3526C4.0111 14.9013 4.557 15.3225 5.11161 15.7329C5.92561 16.3349 6.81994 16.7909 7.76594 17.1439C7.92659 17.2039 7.96905 17.2449 7.84524 17.397C7.60887 17.6875 7.39245 17.995 7.1704 18.2973C7.11105 18.3777 7.04761 18.43 6.9371 18.4197C4.33189 18.1825 2.02444 17.2905 0.186159 15.3568C0.0516002 15.2154 -0.0123534 15.0899 0.00197218 14.8701C0.140624 12.713 0.477787 10.5898 1.04211 8.50399C1.51332 6.76196 2.14109 5.08295 3.01393 3.49668C3.281 3.01096 3.72356 2.7722 4.15435 2.50988C5.32035 1.79974 6.56975 1.29302 7.91482 1.03684C8.08161 1.00507 8.25045 0.980478 8.41929 0.962033C8.70836 0.930779 8.89817 1.08705 8.94422 1.38012C8.96724 1.52819 8.83319 1.49284 8.77487 1.50718C8.17882 1.65423 7.59659 1.84022 7.03022 2.07949C5.92101 2.5483 4.93305 3.20259 4.04282 4.0362C9.33715 1.30634 14.6233 1.2966 19.9048 4.05208C19.9381 3.93219 19.8291 3.90811 19.7739 3.85739C18.5229 2.72046 17.0515 2.00161 15.4286 1.57379C15.4204 1.57174 15.4117 1.57174 15.4035 1.56969C14.9983 1.4662 14.9569 1.32171 15.2275 0.990212C15.293 0.910284 15.358 0.942563 15.4332 0.948199C16.4646 1.02813 17.4342 1.33964 18.373 1.75312C18.966 2.01442 19.5267 2.33823 20.087 2.66461C20.5797 2.95204 20.9061 3.3522 21.164 3.85124C22.0614 5.58865 22.6917 7.42034 23.147 9.31659C23.5297 10.9085 23.783 12.5209 23.9237 14.1528C23.9488 14.4407 23.9334 14.7333 23.9948 15.0176C24.0245 15.1555 23.9206 15.218 23.849 15.2964C22.5039 16.7658 20.8212 17.644 18.9102 18.1241C18.2978 18.2778 17.6747 18.3557 17.0484 18.4192C16.9251 18.4315 16.8637 18.3659 16.7998 18.2788C16.5833 17.9832 16.3705 17.684 16.1393 17.3996C16.0216 17.2546 16.0431 17.208 16.2124 17.145C17.3303 16.7289 18.3679 16.1658 19.296 15.4116C19.692 15.0899 20.0895 14.7671 20.4011 14.3557C20.4221 14.3403 20.4733 14.3367 20.4482 14.2998C20.4282 14.2706 20.3929 14.2932 20.373 14.3218C19.8209 14.6574 19.2842 15.0171 18.7046 15.3076C17.2669 16.0275 15.7468 16.4569 14.1536 16.6434C13.3417 16.7381 12.5277 16.7996 11.7111 16.7807C9.3172 16.7248 7.01538 16.2786 4.89621 15.1027C4.45826 14.8598 4.03872 14.5826 3.61049 14.3218C3.59105 14.3075 3.57212 14.2926 3.55268 14.2778C3.53528 14.2655 3.5184 14.2517 3.49998 14.2414C3.49742 14.2399 3.48514 14.2568 3.47747 14.2655C3.49742 14.2742 3.51737 14.2829 3.53784 14.2916C3.55165 14.3121 3.56598 14.3326 3.5803 14.3526ZM13.6246 10.7722C13.6144 11.1309 13.7085 11.4659 13.8487 11.7882C14.3961 13.044 15.909 13.3386 16.833 12.3723C17.7294 11.4357 17.6312 9.78592 16.6304 8.96768C15.997 8.44968 15.0725 8.45429 14.4406 8.97639C13.8763 9.44315 13.6461 10.06 13.6246 10.7722ZM8.45766 8.58443C8.11026 8.56855 7.79868 8.66999 7.51319 8.85444C6.36663 9.59481 6.19268 11.3973 7.16989 12.3943C7.8918 13.1311 8.96878 13.1368 9.69734 12.4072C10.3798 11.7242 10.5589 10.6011 10.1138 9.70804C9.77357 9.02557 9.24352 8.61056 8.45766 8.58443Z" fill="white"/>
</svg>
