<svg width="24" height="24" viewBox="0 0 24 24" fill="none" xmlns="http://www.w3.org/2000/svg">
<path d="M14.5291 17.7865C14.8283 17.7147 15.141 17.6481 15.4489 17.5639C16.6748 17.2289 17.7993 16.6932 18.72 15.7727C19.6548 14.8379 20.1659 13.6916 20.2742 12.3602C20.3759 11.1087 20.2136 9.89823 19.668 8.76116C19.5513 8.51814 19.4099 8.28529 19.2605 8.06139C19.114 7.84212 18.943 7.64012 18.7917 7.44212C19.208 6.36858 19.256 5.29442 18.7773 4.23999C18.5243 3.68271 18.6111 3.77061 18.0412 3.82951C16.8609 3.95164 15.8691 4.48949 15.0324 5.3453C14.9976 5.38108 14.916 5.40236 14.8695 5.38725C13.757 5.02765 12.6139 4.94901 11.4585 4.99774C10.6564 5.03166 9.86653 5.14762 9.10248 5.41716C9.06077 5.43196 8.98245 5.39619 8.94613 5.35856C8.2238 4.60792 7.37032 4.1009 6.35989 3.89181C6.11141 3.8403 5.85393 3.83475 5.60155 3.80175C5.49621 3.78818 5.43739 3.83444 5.38278 3.92018C5.01846 4.49134 4.88792 5.12726 4.89542 5.79773C4.90202 6.38462 4.99055 6.95423 5.30265 7.47296C5.27924 7.50226 5.25584 7.53464 5.22913 7.56394C4.34174 8.54466 3.86368 9.71103 3.73524 11.0365C3.63411 12.0811 3.72504 13.0997 4.13377 14.0728C4.65324 15.3098 5.54393 16.1868 6.681 16.8194C7.51497 17.2832 8.40986 17.5672 9.33806 17.7495C9.39088 17.76 9.4431 17.7733 9.50732 17.7878C9.26964 18.284 9.24773 18.8073 9.22943 19.3322C9.22762 19.3803 9.19131 19.4528 9.1523 19.4704C8.06535 19.9641 6.39801 19.4994 5.70448 18.5131C5.64596 18.4298 5.59615 18.3404 5.53973 18.2556C5.12439 17.6332 4.57371 17.22 3.83247 17.121C3.68302 17.1009 3.52217 17.1213 3.37392 17.1565C3.15155 17.2089 3.11704 17.3464 3.26769 17.5265C3.32921 17.5999 3.39733 17.6727 3.47566 17.7251C4.06445 18.1211 4.43027 18.6991 4.70486 19.3418C4.88011 19.7517 5.08958 20.1298 5.40228 20.4443C6.08801 21.1342 6.92438 21.4562 7.86908 21.4704C8.31623 21.4772 8.76428 21.4136 9.22552 21.3809C9.22222 21.3674 9.23063 21.3856 9.23063 21.4038C9.23123 21.9435 9.24053 22.4835 9.22733 23.0229C9.21862 23.3846 9.04727 23.6721 8.75557 23.8731C8.55331 24.0125 8.33364 24.0347 8.09716 23.9512C4.08216 22.535 1.08058 19.0183 0.237006 14.7383C-0.904264 8.94774 2.16633 3.10137 7.50627 0.896613C13.6934 -1.65788 20.7021 1.43231 23.1629 7.79956C25.2093 13.0948 23.4051 19.1805 18.8262 22.4292C17.9241 23.0691 16.9542 23.5712 15.9204 23.9453C15.5882 24.0656 15.3097 23.9808 15.0732 23.731C14.8617 23.5071 14.7662 23.2344 14.7671 22.9199C14.7704 21.784 14.7743 20.6479 14.765 19.512C14.7617 19.1176 14.7341 18.7219 14.6906 18.3299C14.6702 18.1461 14.5856 17.9697 14.5291 17.7865Z" fill="white"/>
</svg>
