<svg width="24" height="24" viewBox="0 0 24 24" fill="none" xmlns="http://www.w3.org/2000/svg">
<path d="M7.77864 0C10.6125 0 13.4463 0 16.2802 0C16.6095 0.0288552 16.9389 0.0619852 17.2683 0.0844281C18.9611 0.196643 20.5299 0.630539 21.8238 1.80185C23.2846 3.12384 23.9219 4.83484 23.9551 6.73501C24.0171 10.2575 24.0096 13.7821 23.9572 17.3046C23.9316 18.9824 23.4183 20.5353 22.2548 21.8156C20.9405 23.2615 19.2434 23.906 17.356 23.9391C13.8046 24.0032 10.25 24.0385 6.70071 23.9348C2.9611 23.8258 0.575324 21.5174 0.140088 17.8186C0.0791338 17.3046 0.0459832 16.7873 0 16.2711C0 13.439 0 10.6069 0 7.77487C0.0288732 7.43288 0.0684401 7.09089 0.0844807 6.74784C0.268413 2.99239 2.50876 0.581378 6.2366 0.140001C6.74883 0.0790845 7.26427 0.0459545 7.77864 0ZM12.054 2.24536V2.24643C10.3708 2.24643 8.68761 2.21223 7.00655 2.25712C5.6848 2.29345 4.44219 2.613 3.48082 3.62827C2.5665 4.59332 2.28312 5.79241 2.25424 7.05349C2.19864 9.53503 2.17832 12.0187 2.18153 14.5013C2.1826 15.6074 2.21789 16.72 2.33766 17.8186C2.55902 19.8545 3.76527 21.1947 5.68908 21.6168C6.19489 21.7279 6.71996 21.791 7.23754 21.8006C9.60086 21.8412 11.9652 21.8744 14.3296 21.869C15.4899 21.8669 16.6566 21.8348 17.8094 21.7108C20.0594 21.4682 21.4827 20.0394 21.7254 17.7876C21.8441 16.689 21.8784 15.5765 21.8784 14.4703C21.8805 11.9877 21.8816 9.50404 21.8014 7.02249C21.703 3.9756 20.0733 2.36078 17.0213 2.25498C15.368 2.19834 13.7105 2.24536 12.054 2.24536Z" fill="white"/>
<path d="M5.85229 12.0239C5.85229 8.59232 8.60808 5.8468 12.0483 5.85001C15.4574 5.85321 18.2057 8.60835 18.2057 12.0229C18.2057 15.4545 15.4499 18.2 12.0098 18.1968C8.60059 18.1925 5.85229 15.4374 5.85229 12.0239ZM12.0483 16.0295C14.2469 16.0198 16.0413 14.2127 16.037 12.0133C16.0328 9.81492 14.2287 8.01735 12.029 8.01628C9.81326 8.01628 8.00602 9.83629 8.01992 12.0517C8.03489 14.249 9.84748 16.038 12.0483 16.0295Z" fill="white"/>
<path d="M19.8942 5.59573C19.8985 6.40261 19.2547 7.05131 18.4495 7.05131C17.6475 7.05131 16.9973 6.39512 17.0037 5.59359C17.0101 4.80381 17.6421 4.17114 18.4313 4.16259C19.2441 4.15404 19.89 4.78671 19.8942 5.59573Z" fill="white"/>
</svg>
