<svg width="264" height="48" viewBox="0 0 264 48" fill="none" xmlns="http://www.w3.org/2000/svg">
<path d="M32.3205 10.3169C33.5157 10.3169 34.4845 9.35052 34.4845 8.15845C34.4845 6.96637 33.5157 6 32.3205 6C31.1254 6 30.1565 6.96637 30.1565 8.15845C30.1565 9.35052 31.1254 10.3169 32.3205 10.3169Z" fill="white"/>
<path d="M34.7551 40.8052C35.9502 40.8052 36.9191 39.8388 36.9191 38.6467C36.9191 37.4546 35.9502 36.4883 34.7551 36.4883C33.5599 36.4883 32.5911 37.4546 32.5911 38.6467C32.5911 39.8388 33.5599 40.8052 34.7551 40.8052Z" fill="white"/>
<path d="M32.939 15.7129C33.9421 15.7129 34.7553 14.9019 34.7553 13.9014C34.7553 12.9009 33.9421 12.0898 32.939 12.0898C31.936 12.0898 31.1228 12.9009 31.1228 13.9014C31.1228 14.9019 31.936 15.7129 32.939 15.7129Z" fill="white"/>
<path d="M37.7698 16.4068C38.7729 16.4068 39.5861 15.5957 39.5861 14.5952C39.5861 13.5948 38.7729 12.7837 37.7698 12.7837C36.7668 12.7837 35.9536 13.5948 35.9536 14.5952C35.9536 15.5957 36.7668 16.4068 37.7698 16.4068Z" fill="white"/>
<path d="M32.3209 20.2998C33.1746 20.2998 33.8666 19.6095 33.8666 18.7581C33.8666 17.9066 33.1746 17.2163 32.3209 17.2163C31.4672 17.2163 30.7751 17.9066 30.7751 18.7581C30.7751 19.6095 31.4672 20.2998 32.3209 20.2998Z" fill="white"/>
<path d="M37.1508 20.9551C38.0045 20.9551 38.6966 20.2648 38.6966 19.4133C38.6966 18.5618 38.0045 17.8716 37.1508 17.8716C36.2972 17.8716 35.6051 18.5618 35.6051 19.4133C35.6051 20.2648 36.2972 20.9551 37.1508 20.9551Z" fill="white"/>
<path d="M41.0155 22.4585C41.8691 22.4585 42.5612 21.7682 42.5612 20.9167C42.5612 20.0653 41.8691 19.375 41.0155 19.375C40.1618 19.375 39.4697 20.0653 39.4697 20.9167C39.4697 21.7682 40.1618 22.4585 41.0155 22.4585Z" fill="white"/>
<path d="M35.7212 24.6551C36.4681 24.6551 37.0737 24.0511 37.0737 23.3061C37.0737 22.561 36.4681 21.957 35.7212 21.957C34.9742 21.957 34.3687 22.561 34.3687 23.3061C34.3687 24.0511 34.9742 24.6551 35.7212 24.6551Z" fill="white"/>
<path d="M30.8911 23.9998C31.6381 23.9998 32.2436 23.3958 32.2436 22.6508C32.2436 21.9057 31.6381 21.3018 30.8911 21.3018C30.1441 21.3018 29.5386 21.9057 29.5386 22.6508C29.5386 23.3958 30.1441 23.9998 30.8911 23.9998Z" fill="white"/>
<path d="M39.6241 26.1585C40.3711 26.1585 40.9766 25.5545 40.9766 24.8095C40.9766 24.0644 40.3711 23.4604 39.6241 23.4604C38.8771 23.4604 38.2716 24.0644 38.2716 24.8095C38.2716 25.5545 38.8771 26.1585 39.6241 26.1585Z" fill="white"/>
<path d="M33.7894 27.4689C34.4297 27.4689 34.9487 26.9512 34.9487 26.3126C34.9487 25.6739 34.4297 25.1562 33.7894 25.1562C33.1492 25.1562 32.6301 25.6739 32.6301 26.3126C32.6301 26.9512 33.1492 27.4689 33.7894 27.4689Z" fill="white"/>
<path d="M37.6924 28.9337C38.3326 28.9337 38.8517 28.416 38.8517 27.7774C38.8517 27.1388 38.3326 26.6211 37.6924 26.6211C37.0521 26.6211 36.5331 27.1388 36.5331 27.7774C36.5331 28.416 37.0521 28.9337 37.6924 28.9337Z" fill="white"/>
<path d="M28.9972 26.7745C29.6375 26.7745 30.1565 26.2568 30.1565 25.6182C30.1565 24.9796 29.6375 24.4619 28.9972 24.4619C28.3569 24.4619 27.8379 24.9796 27.8379 25.6182C27.8379 26.2568 28.3569 26.7745 28.9972 26.7745Z" fill="white"/>
<path d="M31.6637 29.3579C32.1973 29.3579 32.6298 28.9264 32.6298 28.3943C32.6298 27.8621 32.1973 27.4307 31.6637 27.4307C31.1302 27.4307 30.6976 27.8621 30.6976 28.3943C30.6976 28.9264 31.1302 29.3579 31.6637 29.3579Z" fill="white"/>
<path d="M33.3254 32.0172C33.7949 32.0172 34.1755 31.6376 34.1755 31.1693C34.1755 30.7009 33.7949 30.3213 33.3254 30.3213C32.8558 30.3213 32.4752 30.7009 32.4752 31.1693C32.4752 31.6376 32.8558 32.0172 33.3254 32.0172Z" fill="white"/>
<path d="M31.2772 32.557C31.6614 32.557 31.9728 32.2464 31.9728 31.8632C31.9728 31.4801 31.6614 31.1694 31.2772 31.1694C30.8931 31.1694 30.5817 31.4801 30.5817 31.8632C30.5817 32.2464 30.8931 32.557 31.2772 32.557Z" fill="white"/>
<path d="M29.4609 30.5524C29.9304 30.5524 30.311 30.1727 30.311 29.7044C30.311 29.2361 29.9304 28.8564 29.4609 28.8564C28.9913 28.8564 28.6107 29.2361 28.6107 29.7044C28.6107 30.1727 28.9913 30.5524 29.4609 30.5524Z" fill="white"/>
<path d="M26.8336 28.7026C27.3672 28.7026 27.7997 28.2712 27.7997 27.739C27.7997 27.2068 27.3672 26.7754 26.8336 26.7754C26.3001 26.7754 25.8676 27.2068 25.8676 27.739C25.8676 28.2712 26.3001 28.7026 26.8336 28.7026Z" fill="white"/>
<path d="M26.7946 21.4555C27.3281 21.4555 27.7607 21.0241 27.7607 20.4919C27.7607 19.9597 27.3281 19.5283 26.7946 19.5283C26.261 19.5283 25.8285 19.9597 25.8285 20.4919C25.8285 21.0241 26.261 21.4555 26.7946 21.4555Z" fill="white"/>
<path d="M27.2197 18.0641C27.6892 18.0641 28.0698 17.6844 28.0698 17.2161C28.0698 16.7478 27.6892 16.3682 27.2197 16.3682C26.7501 16.3682 26.3695 16.7478 26.3695 17.2161C26.3695 17.6844 26.7501 18.0641 27.2197 18.0641Z" fill="white"/>
<path d="M28.1474 15.2889C28.5315 15.2889 28.8429 14.9783 28.8429 14.5952C28.8429 14.212 28.5315 13.9014 28.1474 13.9014C27.7632 13.9014 27.4518 14.212 27.4518 14.5952C27.4518 14.9783 27.7632 15.2889 28.1474 15.2889Z" fill="white"/>
<path d="M26.5242 13.9786C26.9937 13.9786 27.3744 13.599 27.3744 13.1307C27.3744 12.6624 26.9937 12.2827 26.5242 12.2827C26.0547 12.2827 25.6741 12.6624 25.6741 13.1307C25.6741 13.599 26.0547 13.9786 26.5242 13.9786Z" fill="white"/>
<path d="M35.5281 30.8217C36.0616 30.8217 36.4942 30.3903 36.4942 29.8581C36.4942 29.3259 36.0616 28.8945 35.5281 28.8945C34.9945 28.8945 34.562 29.3259 34.562 29.8581C34.562 30.3903 34.9945 30.8217 35.5281 30.8217Z" fill="white"/>
<path d="M24.3216 12.8608C24.8551 12.8608 25.2876 12.4294 25.2876 11.8972C25.2876 11.365 24.8551 10.9336 24.3216 10.9336C23.788 10.9336 23.3555 11.365 23.3555 11.8972C23.3555 12.4294 23.788 12.8608 24.3216 12.8608Z" fill="white"/>
<path d="M24.9785 16.9467C25.5121 16.9467 25.9446 16.5153 25.9446 15.9831C25.9446 15.4509 25.5121 15.0195 24.9785 15.0195C24.445 15.0195 24.0125 15.4509 24.0125 15.9831C24.0125 16.5153 24.445 16.9467 24.9785 16.9467Z" fill="white"/>
<path d="M23.8967 20.8395C24.537 20.8395 25.056 20.3218 25.056 19.6832C25.056 19.0446 24.537 18.5269 23.8967 18.5269C23.2565 18.5269 22.7374 19.0446 22.7374 19.6832C22.7374 20.3218 23.2565 20.8395 23.8967 20.8395Z" fill="white"/>
<path d="M20.3797 20.8392C21.1267 20.8392 21.7323 20.2352 21.7323 19.4901C21.7323 18.7451 21.1267 18.1411 20.3797 18.1411C19.6328 18.1411 19.0272 18.7451 19.0272 19.4901C19.0272 20.2352 19.6328 20.8392 20.3797 20.8392Z" fill="white"/>
<path d="M16.284 21.7646C17.1377 21.7646 17.8297 21.0744 17.8297 20.2229C17.8297 19.3714 17.1377 18.6812 16.284 18.6812C15.4303 18.6812 14.7383 19.3714 14.7383 20.2229C14.7383 21.0744 15.4303 21.7646 16.284 21.7646Z" fill="white"/>
<path d="M11.8013 23.9615C12.8044 23.9615 13.6176 23.1504 13.6176 22.1499C13.6176 21.1494 12.8044 20.3384 11.8013 20.3384C10.7983 20.3384 9.98511 21.1494 9.98511 22.1499C9.98511 23.1504 10.7983 23.9615 11.8013 23.9615Z" fill="white"/>
<path d="M7.16403 27.6616C8.35918 27.6616 9.32805 26.6953 9.32805 25.5032C9.32805 24.3111 8.35918 23.3447 7.16403 23.3447C5.96887 23.3447 5 24.3111 5 25.5032C5 26.6953 5.96887 27.6616 7.16403 27.6616Z" fill="white"/>
<path d="M9.98542 19.4517C10.9885 19.4517 11.8017 18.6407 11.8017 17.6402C11.8017 16.6397 10.9885 15.8286 9.98542 15.8286C8.98234 15.8286 8.16919 16.6397 8.16919 17.6402C8.16919 18.6407 8.98234 19.4517 9.98542 19.4517Z" fill="white"/>
<path d="M14.4675 17.2549C15.3212 17.2549 16.0132 16.5646 16.0132 15.7131C16.0132 14.8617 15.3212 14.1714 14.4675 14.1714C13.6138 14.1714 12.9218 14.8617 12.9218 15.7131C12.9218 16.5646 13.6138 17.2549 14.4675 17.2549Z" fill="white"/>
<path d="M13.8104 13.1689C14.6641 13.1689 15.3561 12.4787 15.3561 11.6272C15.3561 10.7757 14.6641 10.0854 13.8104 10.0854C12.9567 10.0854 12.2646 10.7757 12.2646 11.6272C12.2646 12.4787 12.9567 13.1689 13.8104 13.1689Z" fill="white"/>
<path d="M17.9068 12.244C18.6538 12.244 19.2593 11.64 19.2593 10.8949C19.2593 10.1499 18.6538 9.5459 17.9068 9.5459C17.1599 9.5459 16.5543 10.1499 16.5543 10.8949C16.5543 11.64 17.1599 12.244 17.9068 12.244Z" fill="white"/>
<path d="M21.4231 12.2443C22.0634 12.2443 22.5824 11.7266 22.5824 11.088C22.5824 10.4493 22.0634 9.93164 21.4231 9.93164C20.7828 9.93164 20.2638 10.4493 20.2638 11.088C20.2638 11.7266 20.7828 12.2443 21.4231 12.2443Z" fill="white"/>
<path d="M22.0802 16.3292C22.7205 16.3292 23.2395 15.8115 23.2395 15.1729C23.2395 14.5343 22.7205 14.0166 22.0802 14.0166C21.4399 14.0166 20.9209 14.5343 20.9209 15.1729C20.9209 15.8115 21.4399 16.3292 22.0802 16.3292Z" fill="white"/>
<path d="M18.5638 16.3685C19.3108 16.3685 19.9163 15.7645 19.9163 15.0194C19.9163 14.2744 19.3108 13.6704 18.5638 13.6704C17.8168 13.6704 17.2113 14.2744 17.2113 15.0194C17.2113 15.7645 17.8168 16.3685 18.5638 16.3685Z" fill="white"/>
<path d="M14.7379 26.621C15.1221 26.621 15.4335 26.3104 15.4335 25.9272C15.4335 25.544 15.1221 25.2334 14.7379 25.2334C14.3538 25.2334 14.0424 25.544 14.0424 25.9272C14.0424 26.3104 14.3538 26.621 14.7379 26.621Z" fill="white"/>
<path d="M17.5204 26.274C17.99 26.274 18.3706 25.8944 18.3706 25.4261C18.3706 24.9578 17.99 24.5781 17.5204 24.5781C17.0509 24.5781 16.6703 24.9578 16.6703 25.4261C16.6703 25.8944 17.0509 26.274 17.5204 26.274Z" fill="white"/>
<path d="M20.573 25.1181C21.1066 25.1181 21.5391 24.6867 21.5391 24.1545C21.5391 23.6223 21.1066 23.1909 20.573 23.1909C20.0395 23.1909 19.6069 23.6223 19.6069 24.1545C19.6069 24.6867 20.0395 25.1181 20.573 25.1181Z" fill="white"/>
<path d="M21.3072 28.2013C21.9475 28.2013 22.4665 27.6836 22.4665 27.045C22.4665 26.4064 21.9475 25.8887 21.3072 25.8887C20.667 25.8887 20.1479 26.4064 20.1479 27.045C20.1479 27.6836 20.667 28.2013 21.3072 28.2013Z" fill="white"/>
<path d="M17.598 28.933C18.1316 28.933 18.5641 28.5016 18.5641 27.9695C18.5641 27.4373 18.1316 27.0059 17.598 27.0059C17.0645 27.0059 16.632 27.4373 16.632 27.9695C16.632 28.5016 17.0645 28.933 17.598 28.933Z" fill="white"/>
<path d="M14.3129 28.8947C14.7825 28.8947 15.1631 28.515 15.1631 28.0467C15.1631 27.5784 14.7825 27.1987 14.3129 27.1987C13.8434 27.1987 13.4628 27.5784 13.4628 28.0467C13.4628 28.515 13.8434 28.8947 14.3129 28.8947Z" fill="white"/>
<path d="M14.3513 31.5546C14.8849 31.5546 15.3174 31.1232 15.3174 30.591C15.3174 30.0589 14.8849 29.6274 14.3513 29.6274C13.8178 29.6274 13.3853 30.0589 13.3853 30.591C13.3853 31.1232 13.8178 31.5546 14.3513 31.5546Z" fill="white"/>
<path d="M18.2932 32.0553C18.9335 32.0553 19.4525 31.5376 19.4525 30.899C19.4525 30.2604 18.9335 29.7427 18.2932 29.7427C17.6529 29.7427 17.1339 30.2604 17.1339 30.899C17.1339 31.5376 17.6529 32.0553 18.2932 32.0553Z" fill="white"/>
<path d="M22.8921 31.5545C23.639 31.5545 24.2446 30.9505 24.2446 30.2055C24.2446 29.4604 23.639 28.8564 22.8921 28.8564C22.1451 28.8564 21.5396 29.4604 21.5396 30.2055C21.5396 30.9505 22.1451 31.5545 22.8921 31.5545Z" fill="white"/>
<path d="M25.5965 34.9077C26.4502 34.9077 27.1422 34.2175 27.1422 33.366C27.1422 32.5145 26.4502 31.8242 25.5965 31.8242C24.7428 31.8242 24.0508 32.5145 24.0508 33.366C24.0508 34.2175 24.7428 34.9077 25.5965 34.9077Z" fill="white"/>
<path d="M19.9164 35.3704C20.6633 35.3704 21.2689 34.7664 21.2689 34.0214C21.2689 33.2763 20.6633 32.6724 19.9164 32.6724C19.1694 32.6724 18.5638 33.2763 18.5638 34.0214C18.5638 34.7664 19.1694 35.3704 19.9164 35.3704Z" fill="white"/>
<path d="M16.7087 37.991C17.4557 37.991 18.0612 37.387 18.0612 36.642C18.0612 35.8969 17.4557 35.293 16.7087 35.293C15.9617 35.293 15.3562 35.8969 15.3562 36.642C15.3562 37.387 15.9617 37.991 16.7087 37.991Z" fill="white"/>
<path d="M19.3751 41.3833C20.2288 41.3833 20.9208 40.693 20.9208 39.8416C20.9208 38.9901 20.2288 38.2998 19.3751 38.2998C18.5214 38.2998 17.8293 38.9901 17.8293 39.8416C17.8293 40.693 18.5214 41.3833 19.3751 41.3833Z" fill="white"/>
<path d="M26.4857 42.0001C27.4887 42.0001 28.3019 41.189 28.3019 40.1885C28.3019 39.188 27.4887 38.377 26.4857 38.377C25.4826 38.377 24.6694 39.188 24.6694 40.1885C24.6694 41.189 25.4826 42.0001 26.4857 42.0001Z" fill="white"/>
<path d="M22.5826 38.7617C23.4363 38.7617 24.1283 38.0714 24.1283 37.22C24.1283 36.3685 23.4363 35.6782 22.5826 35.6782C21.7289 35.6782 21.0369 36.3685 21.0369 37.22C21.0369 38.0714 21.7289 38.7617 22.5826 38.7617Z" fill="white"/>
<path d="M29.4614 38.1456C30.4644 38.1456 31.2776 37.3345 31.2776 36.334C31.2776 35.3335 30.4644 34.5225 29.4614 34.5225C28.4583 34.5225 27.6451 35.3335 27.6451 36.334C27.6451 37.3345 28.4583 38.1456 29.4614 38.1456Z" fill="white"/>
<path d="M15.0857 34.6769C15.726 34.6769 16.245 34.1592 16.245 33.5206C16.245 32.882 15.726 32.3643 15.0857 32.3643C14.4454 32.3643 13.9264 32.882 13.9264 33.5206C13.9264 34.1592 14.4454 34.6769 15.0857 34.6769Z" fill="white"/>
<path d="M60 8H61V40H60V8Z" fill="white"/>
<path d="M77.992 31V14.992H74.584V31H77.992ZM89.7139 31.288C94.5619 31.288 98.0899 27.832 98.0899 23.008C98.0899 18.184 94.5619 14.728 89.7139 14.728C84.8899 14.728 81.3619 18.184 81.3619 23.008C81.3619 27.832 84.8899 31.288 89.7139 31.288ZM89.7139 28.264C86.7619 28.264 84.8659 25.984 84.8659 23.008C84.8659 20.008 86.7619 17.752 89.7139 17.752C92.6659 17.752 94.5859 20.008 94.5859 23.008C94.5859 25.984 92.6659 28.264 89.7139 28.264ZM107.984 31V17.992H112.64V14.992H99.8716V17.992H104.552V31H107.984ZM129.165 31L122.997 14.992H118.725L112.533 31H116.421L117.429 28.288H124.293L125.277 31H129.165ZM123.357 25.288H118.365L120.861 18.4L123.357 25.288ZM151.664 31L148.064 24.904C149.792 24.496 151.568 22.984 151.568 20.152C151.568 17.176 149.528 14.992 146.192 14.992H138.704V31H142.112V25.312H144.608L147.752 31H151.664ZM145.688 22.312H142.112V17.992H145.688C147.056 17.992 148.088 18.808 148.088 20.152C148.088 21.496 147.056 22.312 145.688 22.312ZM162.67 31.288C167.518 31.288 171.046 27.832 171.046 23.008C171.046 18.184 167.518 14.728 162.67 14.728C157.846 14.728 154.318 18.184 154.318 23.008C154.318 27.832 157.846 31.288 162.67 31.288ZM162.67 28.264C159.718 28.264 157.822 25.984 157.822 23.008C157.822 20.008 159.718 17.752 162.67 17.752C165.622 17.752 167.542 20.008 167.542 23.008C167.542 25.984 165.622 28.264 162.67 28.264ZM181.622 31.288C186.494 31.288 188.846 28.576 188.846 24.592V14.992H185.366V24.496C185.366 26.728 184.094 28.264 181.622 28.264C179.15 28.264 177.854 26.728 177.854 24.496V14.992H174.398V24.616C174.398 28.552 176.75 31.288 181.622 31.288ZM203.135 31V28H196.367V14.992H192.959V31H203.135ZM217.81 31V28H209.89V24.376H217.642V21.376H209.89V17.992H217.81V14.992H206.482V31H217.81ZM228.562 31V17.992H233.218V14.992H220.45V17.992H225.13V31H228.562ZM243.491 31V17.992H248.147V14.992H235.379V17.992H240.059V31H243.491ZM262.62 31V28H254.7V24.376H262.452V21.376H254.7V17.992H262.62V14.992H251.292V31H262.62Z" fill="white"/>
</svg>
