<svg width="528" height="528" viewBox="0 0 528 528" fill="none" xmlns="http://www.w3.org/2000/svg">
    <path opacity="0.3"
        d="M264 17C296.437 17 328.555 23.3888 358.523 35.8018C388.49 48.2147 415.719 66.4086 438.655 89.3446C461.591 112.281 479.785 139.51 492.198 169.477C504.611 199.445 511 231.564 511 264C511 296.437 504.611 328.555 492.198 358.523C479.785 388.49 461.591 415.719 438.655 438.655C415.719 461.591 388.49 479.785 358.523 492.198C328.555 504.611 296.436 511 264 511C231.563 511 199.445 504.611 169.477 492.198C139.51 479.785 112.281 461.591 89.3446 438.655C66.4085 415.719 48.2146 388.49 35.8017 358.523C23.3888 328.555 17 296.436 17 264C17 231.563 23.3889 199.444 35.8018 169.477C48.2147 139.51 66.4086 112.281 89.3447 89.3445C112.281 66.4085 139.51 48.2146 169.477 35.8017C199.445 23.3888 231.564 17 264 17Z"
        stroke="#293858" stroke-width="10" />
</svg>