<svg width="504" height="504" viewBox="0 0 504 504" fill="none" xmlns="http://www.w3.org/2000/svg">
    <g opacity="0.3" filter="url(#filter0_i)">
        <path
            d="M252 5C284.437 5 316.555 11.3888 346.523 23.8018C376.49 36.2147 403.719 54.4086 426.655 77.3446C449.591 100.281 467.785 127.51 480.198 157.477C492.611 187.445 499 219.564 499 252C499 284.437 492.611 316.555 480.198 346.523C467.785 376.49 449.591 403.719 426.655 426.655C403.719 449.591 376.49 467.785 346.523 480.198C316.555 492.611 284.436 499 252 499C219.563 499 187.445 492.611 157.477 480.198C127.51 467.785 100.281 449.591 77.3446 426.655C54.4085 403.719 36.2146 376.49 23.8017 346.523C11.3888 316.555 4.99998 284.436 5 252C5.00002 219.563 11.3889 187.444 23.8018 157.477C36.2147 127.51 54.4086 100.281 77.3447 77.3445C100.281 54.4085 127.51 36.2146 157.477 23.8017C187.445 11.3888 219.564 4.99998 252 5L252 5Z"
            stroke="#293858" stroke-width="10" />
    </g>
    <defs>
        <filter id="filter0_i" x="0" y="0" width="504" height="508" filterUnits="userSpaceOnUse"
            color-interpolation-filters="sRGB">
            <feFlood flood-opacity="0" result="BackgroundImageFix" />
            <feBlend mode="normal" in="SourceGraphic" in2="BackgroundImageFix" result="shape" />
            <feColorMatrix in="SourceAlpha" type="matrix" values="0 0 0 0 0 0 0 0 0 0 0 0 0 0 0 0 0 0 127 0"
                result="hardAlpha" />
            <feOffset dy="4" />
            <feGaussianBlur stdDeviation="6" />
            <feComposite in2="hardAlpha" operator="arithmetic" k2="-1" k3="1" />
            <feColorMatrix type="matrix" values="0 0 0 0 0 0 0 0 0 0 0 0 0 0 0 0 0 0 0.12 0" />
            <feBlend mode="normal" in2="shape" result="effect1_innerShadow" />
        </filter>
    </defs>
</svg>