<svg width="528" height="528" viewBox="0 0 528 528" fill="none" xmlns="http://www.w3.org/2000/svg">
<circle cx="264" cy="264" r="220" fill="url(#paint0_radial)"/>
<circle cx="264" cy="264" r="220.5" stroke="url(#paint1_linear)"/>
<g opacity="0.4" filter="url(#filter0_f)">
<circle cx="264" cy="269" r="185" stroke="#14CABF" stroke-width="2"/>
</g>
<g opacity="0.4" filter="url(#filter1_f)">
<circle cx="264" cy="268" r="142" stroke="#14CABF" stroke-width="2"/>
</g>
<g filter="url(#filter2_d)">
<path d="M315.961 185.654C315.961 191.24 311.455 195.764 305.901 195.764C300.347 195.764 295.84 191.24 295.84 185.654C295.84 180.068 300.347 175.545 305.901 175.545C311.455 175.545 315.961 180.068 315.961 185.654Z" fill="#D0DAEE" stroke="url(#paint2_linear)" stroke-width="1.0891"/>
<path d="M327.893 336.166C327.893 341.752 323.386 346.276 317.832 346.276C312.278 346.276 307.772 341.752 307.772 336.166C307.772 330.58 312.278 326.056 317.832 326.056C323.386 326.056 327.893 330.58 327.893 336.166Z" fill="#D0DAEE" stroke="url(#paint3_linear)" stroke-width="1.0891"/>
<path d="M317.292 214.008C317.292 218.649 313.548 222.406 308.935 222.406C304.323 222.406 300.579 218.649 300.579 214.008C300.579 209.368 304.323 205.611 308.935 205.611C313.548 205.611 317.292 209.368 317.292 214.008Z" fill="#D0DAEE" stroke="url(#paint4_linear)" stroke-width="1.0891"/>
<path d="M340.966 217.429C340.966 222.069 337.223 225.827 332.61 225.827C327.998 225.827 324.254 222.069 324.254 217.429C324.254 212.789 327.998 209.031 332.61 209.031C337.223 209.031 340.966 212.789 340.966 217.429Z" fill="#D0DAEE" stroke="url(#paint5_linear)" stroke-width="1.0891"/>
<path d="M312.94 237.98C312.94 241.885 309.79 245.046 305.909 245.046C302.029 245.046 298.879 241.885 298.879 237.98C298.879 234.075 302.029 230.914 305.909 230.914C309.79 230.914 312.94 234.075 312.94 237.98Z" fill="#D0DAEE" stroke="url(#paint6_linear)" stroke-width="1.0891"/>
<path d="M336.609 241.214C336.609 245.119 333.459 248.28 329.579 248.28C325.698 248.28 322.548 245.119 322.548 241.214C322.548 237.31 325.698 234.149 329.579 234.149C333.459 234.149 336.609 237.31 336.609 241.214Z" fill="#D0DAEE" stroke="url(#paint7_linear)" stroke-width="1.0891"/>
<path d="M355.549 248.641C355.549 252.546 352.398 255.707 348.518 255.707C344.638 255.707 341.488 252.546 341.488 248.641C341.488 244.736 344.638 241.575 348.518 241.575C352.398 241.575 355.549 244.736 355.549 248.641Z" fill="#D0DAEE" stroke="url(#paint8_linear)" stroke-width="1.0891"/>
<path d="M328.652 260.43C328.652 263.81 325.926 266.545 322.568 266.545C319.211 266.545 316.485 263.81 316.485 260.43C316.485 257.051 319.211 254.316 322.568 254.316C325.926 254.316 328.652 257.051 328.652 260.43Z" fill="#D0DAEE" stroke="url(#paint9_linear)" stroke-width="1.0891"/>
<path d="M304.977 257.196C304.977 260.576 302.251 263.311 298.894 263.311C295.536 263.311 292.81 260.576 292.81 257.196C292.81 253.817 295.536 251.082 298.894 251.082C302.251 251.082 304.977 253.817 304.977 257.196Z" fill="#D0DAEE" stroke="url(#paint10_linear)" stroke-width="1.0891"/>
<path d="M347.79 267.859C347.79 271.238 345.064 273.973 341.707 273.973C338.349 273.973 335.623 271.238 335.623 267.859C335.623 264.48 338.349 261.744 341.707 261.744C345.064 261.744 347.79 264.48 347.79 267.859Z" fill="#D0DAEE" stroke="url(#paint11_linear)" stroke-width="1.0891"/>
<path d="M318.235 275.285C318.235 278.139 315.933 280.448 313.098 280.448C310.264 280.448 307.962 278.139 307.962 275.285C307.962 272.431 310.264 270.122 313.098 270.122C315.933 270.122 318.235 272.431 318.235 275.285Z" fill="#D0DAEE" stroke="url(#paint12_linear)" stroke-width="1.0891"/>
<path d="M337.37 282.513C337.37 285.367 335.068 287.676 332.234 287.676C329.399 287.676 327.097 285.367 327.097 282.513C327.097 279.659 329.399 277.35 332.234 277.35C335.068 277.35 337.37 279.659 337.37 282.513Z" fill="#D0DAEE" stroke="url(#paint13_linear)" stroke-width="1.0891"/>
<path d="M294.753 271.852C294.753 274.706 292.45 277.015 289.616 277.015C286.781 277.015 284.479 274.706 284.479 271.852C284.479 268.998 286.781 266.689 289.616 266.689C292.45 266.689 294.753 268.998 294.753 271.852Z" fill="#D0DAEE" stroke="url(#paint14_linear)" stroke-width="1.0891"/>
<path d="M306.864 285.553C306.864 287.882 304.986 289.765 302.674 289.765C300.363 289.765 298.484 287.882 298.484 285.553C298.484 283.225 300.363 281.342 302.674 281.342C304.986 281.342 306.864 283.225 306.864 285.553Z" fill="#D0DAEE" stroke="url(#paint15_linear)" stroke-width="1.0891"/>
<path d="M314.453 299.259C314.453 301.272 312.829 302.9 310.831 302.9C308.833 302.9 307.209 301.272 307.209 299.259C307.209 297.246 308.833 295.618 310.831 295.618C312.829 295.618 314.453 297.246 314.453 299.259Z" fill="#D0DAEE" stroke="url(#paint16_linear)" stroke-width="1.0891"/>
<path d="M303.652 302.676C303.652 304.269 302.367 305.556 300.788 305.556C299.208 305.556 297.923 304.269 297.923 302.676C297.923 301.083 299.208 299.796 300.788 299.796C302.367 299.796 303.652 301.083 303.652 302.676Z" fill="#D0DAEE" stroke="url(#paint17_linear)" stroke-width="1.0891"/>
<path d="M295.505 292.019C295.505 294.032 293.881 295.66 291.883 295.66C289.885 295.66 288.261 294.032 288.261 292.019C288.261 290.005 289.885 288.377 291.883 288.377C293.881 288.377 295.505 290.005 295.505 292.019Z" fill="#D0DAEE" stroke="url(#paint18_linear)" stroke-width="1.0891"/>
<path d="M283.201 282.319C283.201 284.647 281.322 286.531 279.011 286.531C276.699 286.531 274.821 284.647 274.821 282.319C274.821 279.99 276.699 278.107 279.011 278.107C281.322 278.107 283.201 279.99 283.201 282.319Z" fill="#D0DAEE" stroke="url(#paint19_linear)" stroke-width="1.0891"/>
<path d="M283.011 246.545C283.011 248.874 281.133 250.757 278.821 250.757C276.51 250.757 274.631 248.874 274.631 246.545C274.631 244.216 276.51 242.333 278.821 242.333C281.133 242.333 283.011 244.216 283.011 246.545Z" fill="#D0DAEE" stroke="url(#paint20_linear)" stroke-width="1.0891"/>
<path d="M284.519 230.367C284.519 232.381 282.895 234.008 280.897 234.008C278.899 234.008 277.275 232.381 277.275 230.367C277.275 228.354 278.899 226.726 280.897 226.726C282.895 226.726 284.519 228.354 284.519 230.367Z" fill="#D0DAEE" stroke="url(#paint21_linear)" stroke-width="1.0891"/>
<path d="M288.315 217.43C288.315 219.023 287.03 220.31 285.451 220.31C283.871 220.31 282.586 219.023 282.586 217.43C282.586 215.837 283.871 214.55 285.451 214.55C287.03 214.55 288.315 215.837 288.315 217.43Z" fill="#D0DAEE" stroke="url(#paint22_linear)" stroke-width="1.0891"/>
<path d="M281.117 210.2C281.117 212.213 279.493 213.841 277.495 213.841C275.497 213.841 273.874 212.213 273.874 210.2C273.874 208.187 275.497 206.559 277.495 206.559C279.493 206.559 281.117 208.187 281.117 210.2Z" fill="#D0DAEE" stroke="url(#paint23_linear)" stroke-width="1.0891"/>
<path d="M325.812 292.782C325.812 295.111 323.934 296.994 321.623 296.994C319.311 296.994 317.433 295.111 317.433 292.782C317.433 290.454 319.311 288.57 321.623 288.57C323.934 288.57 325.812 290.454 325.812 292.782Z" fill="#D0DAEE" stroke="url(#paint24_linear)" stroke-width="1.0891"/>
<path d="M270.892 204.112C270.892 206.441 269.014 208.324 266.702 208.324C264.391 208.324 262.512 206.441 262.512 204.112C262.512 201.783 264.391 199.9 266.702 199.9C269.014 199.9 270.892 201.783 270.892 204.112Z" fill="#D0DAEE" stroke="url(#paint25_linear)" stroke-width="1.0891"/>
<path d="M274.106 224.28C274.106 226.609 272.228 228.492 269.916 228.492C267.605 228.492 265.726 226.609 265.726 224.28C265.726 221.952 267.605 220.069 269.916 220.069C272.228 220.069 274.106 221.952 274.106 224.28Z" fill="#D0DAEE" stroke="url(#paint26_linear)" stroke-width="1.0891"/>
<path d="M269.753 242.542C269.753 245.396 267.45 247.705 264.616 247.705C261.781 247.705 259.479 245.396 259.479 242.542C259.479 239.688 261.781 237.379 264.616 237.379C267.45 237.379 269.753 239.688 269.753 242.542Z" fill="#D0DAEE" stroke="url(#paint27_linear)" stroke-width="1.0891"/>
<path d="M253.461 241.591C253.461 244.97 250.735 247.705 247.378 247.705C244.02 247.705 241.294 244.97 241.294 241.591C241.294 238.212 244.02 235.477 247.378 235.477C250.735 235.477 253.461 238.212 253.461 241.591Z" fill="#D0DAEE" stroke="url(#paint28_linear)" stroke-width="1.0891"/>
<path d="M234.335 245.206C234.335 249.11 231.185 252.271 227.305 252.271C223.424 252.271 220.274 249.11 220.274 245.206C220.274 241.301 223.424 238.14 227.305 238.14C231.185 238.14 234.335 241.301 234.335 245.206Z" fill="#D0DAEE" stroke="url(#paint29_linear)" stroke-width="1.0891"/>
<path d="M213.684 254.731C213.684 259.371 209.941 263.128 205.328 263.128C200.716 263.128 196.972 259.371 196.972 254.731C196.972 250.09 200.716 246.333 205.328 246.333C209.941 246.333 213.684 250.09 213.684 254.731Z" fill="#D0DAEE" stroke="url(#paint30_linear)" stroke-width="1.0891"/>
<path d="M192.665 271.284C192.665 276.869 188.159 281.393 182.605 281.393C177.051 281.393 172.544 276.869 172.544 271.284C172.544 265.698 177.051 261.174 182.605 261.174C188.159 261.174 192.665 265.698 192.665 271.284Z" fill="#D0DAEE" stroke="url(#paint31_linear)" stroke-width="1.0891"/>
<path d="M204.783 232.455C204.783 237.095 201.039 240.852 196.427 240.852C191.814 240.852 188.07 237.095 188.07 232.455C188.07 227.815 191.814 224.057 196.427 224.057C201.039 224.057 204.783 227.815 204.783 232.455Z" fill="#D0DAEE" stroke="url(#paint32_linear)" stroke-width="1.0891"/>
<path d="M225.432 222.946C225.432 226.851 222.282 230.012 218.402 230.012C214.521 230.012 211.371 226.851 211.371 222.946C211.371 219.041 214.521 215.88 218.402 215.88C222.282 215.88 225.432 219.041 225.432 222.946Z" fill="#D0DAEE" stroke="url(#paint33_linear)" stroke-width="1.0891"/>
<path d="M222.214 202.779C222.214 206.683 219.064 209.845 215.184 209.845C211.303 209.845 208.153 206.683 208.153 202.779C208.153 198.874 211.303 195.713 215.184 195.713C219.064 195.713 222.214 198.874 222.214 202.779Z" fill="#D0DAEE" stroke="url(#paint34_linear)" stroke-width="1.0891"/>
<path d="M241.34 199.168C241.34 202.548 238.614 205.283 235.256 205.283C231.899 205.283 229.173 202.548 229.173 199.168C229.173 195.789 231.899 193.054 235.256 193.054C238.614 193.054 241.34 195.789 241.34 199.168Z" fill="#D0DAEE" stroke="url(#paint35_linear)" stroke-width="1.0891"/>
<path d="M257.626 200.118C257.626 202.972 255.324 205.282 252.489 205.282C249.655 205.282 247.353 202.972 247.353 200.118C247.353 197.265 249.655 194.955 252.489 194.955C255.324 194.955 257.626 197.265 257.626 200.118Z" fill="#D0DAEE" stroke="url(#paint36_linear)" stroke-width="1.0891"/>
<path d="M260.846 220.286C260.846 223.14 258.543 225.449 255.709 225.449C252.874 225.449 250.572 223.14 250.572 220.286C250.572 217.432 252.874 215.123 255.709 215.123C258.543 215.123 260.846 217.432 260.846 220.286Z" fill="#D0DAEE" stroke="url(#paint37_linear)" stroke-width="1.0891"/>
<path d="M244.569 219.525C244.569 222.904 241.843 225.639 238.485 225.639C235.128 225.639 232.402 222.904 232.402 219.525C232.402 216.146 235.128 213.41 238.485 213.41C241.843 213.41 244.569 216.146 244.569 219.525Z" fill="#D0DAEE" stroke="url(#paint38_linear)" stroke-width="1.0891"/>
<path d="M222.596 273.375C222.596 274.968 221.312 276.255 219.732 276.255C218.153 276.255 216.868 274.968 216.868 273.375C216.868 271.782 218.153 270.495 219.732 270.495C221.312 270.495 222.596 271.782 222.596 273.375Z" fill="#D0DAEE" stroke="url(#paint39_linear)" stroke-width="1.0891"/>
<path d="M236.979 270.902C236.979 272.915 235.355 274.543 233.357 274.543C231.359 274.543 229.735 272.915 229.735 270.902C229.735 268.889 231.359 267.261 233.357 267.261C235.355 267.261 236.979 268.889 236.979 270.902Z" fill="#D0DAEE" stroke="url(#paint40_linear)" stroke-width="1.0891"/>
<path d="M252.514 264.628C252.514 266.956 250.636 268.84 248.324 268.84C246.013 268.84 244.135 266.956 244.135 264.628C244.135 262.299 246.013 260.416 248.324 260.416C250.636 260.416 252.514 262.299 252.514 264.628Z" fill="#D0DAEE" stroke="url(#paint41_linear)" stroke-width="1.0891"/>
<path d="M257.063 278.89C257.063 281.744 254.761 284.054 251.927 284.054C249.092 284.054 246.79 281.744 246.79 278.89C246.79 276.037 249.092 273.727 251.927 273.727C254.761 273.727 257.063 276.037 257.063 278.89Z" fill="#D0DAEE" stroke="url(#paint42_linear)" stroke-width="1.0891"/>
<path d="M237.93 283.456C237.93 285.785 236.051 287.668 233.74 287.668C231.428 287.668 229.55 285.785 229.55 283.456C229.55 281.128 231.428 279.244 233.74 279.244C236.051 279.244 237.93 281.128 237.93 283.456Z" fill="#D0DAEE" stroke="url(#paint43_linear)" stroke-width="1.0891"/>
<path d="M221.259 283.842C221.259 285.855 219.635 287.483 217.637 287.483C215.639 287.483 214.015 285.855 214.015 283.842C214.015 281.828 215.639 280.201 217.637 280.201C219.635 280.201 221.259 281.828 221.259 283.842Z" fill="#D0DAEE" stroke="url(#paint44_linear)" stroke-width="1.0891"/>
<path d="M222.024 296.393C222.024 298.722 220.146 300.605 217.834 300.605C215.523 300.605 213.644 298.722 213.644 296.393C213.644 294.065 215.523 292.181 217.834 292.181C220.146 292.181 222.024 294.065 222.024 296.393Z" fill="#D0DAEE" stroke="url(#paint45_linear)" stroke-width="1.0891"/>
<path d="M242.289 297.922C242.289 300.776 239.987 303.085 237.152 303.085C234.318 303.085 232.016 300.776 232.016 297.922C232.016 295.068 234.318 292.759 237.152 292.759C239.987 292.759 242.289 295.068 242.289 297.922Z" fill="#D0DAEE" stroke="url(#paint46_linear)" stroke-width="1.0891"/>
<path d="M265.778 294.492C265.778 297.871 263.052 300.606 259.695 300.606C256.337 300.606 253.611 297.871 253.611 294.492C253.611 291.113 256.337 288.377 259.695 288.377C263.052 288.377 265.778 291.113 265.778 294.492Z" fill="#D0DAEE" stroke="url(#paint47_linear)" stroke-width="1.0891"/>
<path d="M279.978 310.093C279.978 313.998 276.828 317.159 272.947 317.159C269.067 317.159 265.917 313.998 265.917 310.093C265.917 306.189 269.067 303.028 272.947 303.028C276.828 303.028 279.978 306.189 279.978 310.093Z" fill="#D0DAEE" stroke="url(#paint48_linear)" stroke-width="1.0891"/>
<path d="M251.188 313.329C251.188 316.709 248.462 319.444 245.104 319.444C241.747 319.444 239.021 316.709 239.021 313.329C239.021 309.95 241.747 307.215 245.104 307.215C248.462 307.215 251.188 309.95 251.188 313.329Z" fill="#D0DAEE" stroke="url(#paint49_linear)" stroke-width="1.0891"/>
<path d="M235.47 326.271C235.47 329.65 232.744 332.385 229.386 332.385C226.029 332.385 223.303 329.65 223.303 326.271C223.303 322.892 226.029 320.157 229.386 320.157C232.744 320.157 235.47 322.892 235.47 326.271Z" fill="#D0DAEE" stroke="url(#paint50_linear)" stroke-width="1.0891"/>
<path d="M249.483 342.072C249.483 345.977 246.333 349.138 242.452 349.138C238.572 349.138 235.422 345.977 235.422 342.072C235.422 338.167 238.572 335.006 242.452 335.006C246.333 335.006 249.483 338.167 249.483 342.072Z" fill="#D0DAEE" stroke="url(#paint51_linear)" stroke-width="1.0891"/>
<path d="M285.657 343.775C285.657 348.415 281.914 352.172 277.301 352.172C272.688 352.172 268.945 348.415 268.945 343.775C268.945 339.134 272.688 335.377 277.301 335.377C281.914 335.377 285.657 339.134 285.657 343.775Z" fill="#D0DAEE" stroke="url(#paint52_linear)" stroke-width="1.0891"/>
<path d="M265.203 329.127C265.203 333.032 262.053 336.193 258.172 336.193C254.292 336.193 251.142 333.032 251.142 329.127C251.142 325.222 254.292 322.061 258.172 322.061C262.053 322.061 265.203 325.222 265.203 329.127Z" fill="#D0DAEE" stroke="url(#paint53_linear)" stroke-width="1.0891"/>
<path d="M300.247 324.748C300.247 329.388 296.503 333.145 291.891 333.145C287.278 333.145 283.534 329.388 283.534 324.748C283.534 320.107 287.278 316.35 291.891 316.35C296.503 316.35 300.247 320.107 300.247 324.748Z" fill="#D0DAEE" stroke="url(#paint54_linear)" stroke-width="1.0891"/>
<path d="M226.567 310.86C226.567 313.714 224.265 316.023 221.431 316.023C218.596 316.023 216.294 313.714 216.294 310.86C216.294 308.006 218.596 305.697 221.431 305.697C224.265 305.697 226.567 308.006 226.567 310.86Z" fill="#D0DAEE" stroke="url(#paint55_linear)" stroke-width="1.0891"/>
</g>
<path d="M319.484 133.288C284.817 118.573 245.724 118.232 210.806 132.34" stroke="#14CABF" stroke-width="2"/>
<path d="M337.067 91.8656C291.414 72.4871 239.933 72.0378 193.949 90.6166" stroke="#14CABF" stroke-width="2"/>
<path d="M266.33 93.8182H264.307L261.786 95.4141V97.3232L264.118 95.8615H264.177V104H266.33V93.8182Z" fill="#14CABF"/>
<path d="M395.66 210.806C381.552 175.887 354.151 148.003 319.484 133.288" stroke="#14CABF" stroke-width="2"/>
<path d="M437.383 193.948C418.805 147.964 382.72 111.244 337.067 91.8654" stroke="#14CABF" stroke-width="2"/>
<path d="M374.956 148.682L380.089 153.815L381.333 152.57L378.31 149.547L378.359 149.498L380.441 149.519C383.27 149.649 384.343 149.371 385.162 148.552C386.41 147.304 386.273 145.402 384.729 143.859C383.218 142.347 381.277 142.214 379.868 143.63L381.312 145.075C381.998 144.383 382.856 144.397 383.513 145.054C384.146 145.687 384.223 146.552 383.59 147.184C383.017 147.757 382.272 147.8 380.989 147.775L376.053 147.585L374.956 148.682Z" fill="#14CABF"/>
<path d="M394.712 319.484C409.427 284.817 409.768 245.724 395.66 210.806" stroke="#14CABF" stroke-width="2"/>
<path d="M436.134 337.067C455.513 291.414 455.962 239.933 437.383 193.949" stroke="#14CABF" stroke-width="2"/>
<path d="M423.861 263.975C423.861 266.261 425.119 267.897 426.859 267.892C428.126 267.897 429.031 267.092 429.22 265.595L429.3 265.595C429.504 266.734 430.309 267.519 431.452 267.514C433.058 267.519 434.321 266.112 434.321 264.004C434.321 261.916 433.098 260.345 431.338 260.315L431.338 262.379C432.114 262.403 432.616 263.114 432.616 263.994C432.616 264.864 432.089 265.446 431.323 265.441C430.523 265.446 429.981 264.765 429.981 263.786L429.981 262.836L428.4 262.836L428.4 263.786C428.4 264.939 427.823 265.66 427.003 265.655C426.192 265.66 425.636 264.964 425.636 263.979C425.636 263.03 426.133 262.319 426.879 262.279L426.879 260.112C425.099 260.146 423.861 261.737 423.861 263.975Z" fill="#14CABF"/>
<path d="M317.194 395.66C352.113 381.552 379.997 354.151 394.712 319.484" stroke="#14CABF" stroke-width="2"/>
<path d="M334.052 437.383C380.036 418.805 416.756 382.72 436.135 337.067" stroke="#14CABF" stroke-width="2"/>
<path d="M381.283 375.523L377.827 378.978L376.562 377.713L375.106 379.168L376.372 380.434L375.479 381.327L376.699 382.546L377.592 381.654L382.306 386.368L384.211 384.462L382.482 376.721L381.283 375.523ZM379.019 380.226L380.97 378.275L381.026 378.331L382.13 383.225L382.074 383.281L379.019 380.226Z" fill="#14CABF"/>
<path d="M208.516 394.712C243.183 409.427 282.276 409.768 317.194 395.66" stroke="#14CABF" stroke-width="2"/>
<path d="M190.933 436.134C236.586 455.513 288.067 455.962 334.051 437.383" stroke="#14CABF" stroke-width="2"/>
<path d="M263.968 423.861C261.701 423.861 260.159 425.337 260.164 427.396C260.159 429.344 261.522 430.746 263.356 430.746C264.251 430.746 265.022 430.374 265.38 429.871L265.439 429.871L265.176 432.422L260.726 432.422L260.726 434.182L266.951 434.182L267.433 428.812L265.519 428.469C265.206 428.892 264.599 429.156 263.998 429.156C262.973 429.151 262.238 428.41 262.238 427.341C262.238 426.282 262.958 425.551 263.968 425.551C264.823 425.551 265.514 426.088 265.564 426.879L267.652 426.879C267.612 425.119 266.076 423.861 263.968 423.861Z" fill="#14CABF"/>
<path d="M132.34 317.194C146.448 352.113 173.849 379.997 208.516 394.712" stroke="#14CABF" stroke-width="2"/>
<path d="M90.6167 334.052C109.195 380.036 145.28 416.756 190.933 436.135" stroke="#14CABF" stroke-width="2"/>
<path d="M150.882 376.96C149.286 375.35 147.142 375.307 145.679 376.777C144.326 378.123 144.294 380.039 145.57 381.315C146.361 382.106 147.441 382.426 148.4 382.113L148.45 382.163C147.04 383.558 145.676 383.938 144.737 382.999C144.185 382.447 144.09 381.748 144.477 381.129L142.976 379.628C141.935 380.957 141.995 382.866 143.433 384.304C145.212 386.082 147.796 385.784 150.221 383.372C152.861 380.739 152.355 378.447 150.882 376.96ZM149.694 378.162C150.397 378.865 150.351 379.951 149.648 380.654C148.945 381.351 147.845 381.389 147.145 380.69C146.442 379.987 146.481 378.921 147.198 378.211C147.915 377.487 148.991 377.459 149.694 378.162Z" fill="#14CABF"/>
<path d="M133.288 208.516C118.573 243.183 118.232 282.276 132.34 317.194" stroke="#14CABF" stroke-width="2"/>
<path d="M91.8656 190.933C72.4871 236.586 72.0378 288.067 90.6166 334.051" stroke="#14CABF" stroke-width="2"/>
<path d="M104 266.435L104 264.213L95.603 259.987L93.8182 259.987L93.8182 267.131L95.5781 267.131L95.5781 262.214L95.6477 262.214L104 266.435Z" fill="#14CABF"/>
<path d="M210.806 132.34C175.887 146.448 148.003 173.849 133.288 208.516" stroke="#14CABF" stroke-width="2"/>
<path d="M193.948 90.6166C147.964 109.195 111.244 145.28 91.8654 190.933" stroke="#14CABF" stroke-width="2"/>
<path d="M150.958 150.964C152.582 149.34 152.881 147.305 151.717 146.134C150.814 145.238 149.387 145.196 148.378 145.916L148.328 145.867C148.926 144.96 148.814 143.772 148.026 142.977C146.908 141.866 145.017 142.113 143.562 143.568C142.103 145.027 141.857 146.918 142.974 148.029C143.758 148.82 144.943 148.943 145.864 148.331L145.913 148.381C145.179 149.404 145.228 150.824 146.131 151.72C147.295 152.891 149.334 152.589 150.958 150.964ZM149.84 149.847C149.116 150.571 148.202 150.627 147.594 150.019C146.972 149.397 147.031 148.437 147.731 147.737C148.427 147.041 149.39 146.978 150.012 147.6C150.624 148.212 150.561 149.126 149.84 149.847ZM146.624 146.63C146.015 147.238 145.186 147.273 144.616 146.704C144.054 146.141 144.092 145.329 144.708 144.714C145.319 144.102 146.138 144.064 146.697 144.623C147.267 145.192 147.228 146.025 146.624 146.63Z" fill="#14CABF"/>
<g opacity="0.3" filter="url(#filter3_i)">
<path d="M264 20C296.437 20 328.555 26.3888 358.523 38.8018C388.49 51.2147 415.719 69.4086 438.655 92.3446C461.591 115.281 479.785 142.51 492.198 172.477C504.611 202.445 511 234.564 511 267C511 299.437 504.611 331.555 492.198 361.523C479.785 391.49 461.591 418.719 438.655 441.655C415.719 464.591 388.49 482.785 358.523 495.198C328.555 507.611 296.436 514 264 514C231.563 514 199.445 507.611 169.477 495.198C139.51 482.785 112.281 464.591 89.3446 441.655C66.4085 418.719 48.2146 391.49 35.8017 361.523C23.3888 331.555 17 299.436 17 267C17 234.563 23.3889 202.444 35.8018 172.477C48.2147 142.51 66.4086 115.281 89.3447 92.3445C112.281 69.4085 139.51 51.2146 169.477 38.8017C199.445 26.3888 231.564 20 264 20L264 20Z" stroke="#293858" stroke-width="10"/>
</g>
<defs>
<filter id="filter0_f" x="74" y="79" width="380" height="380" filterUnits="userSpaceOnUse" color-interpolation-filters="sRGB">
<feFlood flood-opacity="0" result="BackgroundImageFix"/>
<feBlend mode="normal" in="SourceGraphic" in2="BackgroundImageFix" result="shape"/>
<feGaussianBlur stdDeviation="2" result="effect1_foregroundBlur"/>
</filter>
<filter id="filter1_f" x="117" y="121" width="294" height="294" filterUnits="userSpaceOnUse" color-interpolation-filters="sRGB">
<feFlood flood-opacity="0" result="BackgroundImageFix"/>
<feBlend mode="normal" in="SourceGraphic" in2="BackgroundImageFix" result="shape"/>
<feGaussianBlur stdDeviation="2" result="effect1_foregroundBlur"/>
</filter>
<filter id="filter2_d" x="163.419" y="165.799" width="212.41" height="206.033" filterUnits="userSpaceOnUse" color-interpolation-filters="sRGB">
<feFlood flood-opacity="0" result="BackgroundImageFix"/>
<feColorMatrix in="SourceAlpha" type="matrix" values="0 0 0 0 0 0 0 0 0 0 0 0 0 0 0 0 0 0 127 0" result="hardAlpha"/>
<feOffset dx="5.57737" dy="4.95766"/>
<feGaussianBlur stdDeviation="7.07916"/>
<feColorMatrix type="matrix" values="0 0 0 0 0.0857812 0 0 0 0 0.10262 0 0 0 0 0.254167 0 0 0 1 0"/>
<feBlend mode="normal" in2="BackgroundImageFix" result="effect1_dropShadow"/>
<feBlend mode="normal" in="SourceGraphic" in2="effect1_dropShadow" result="shape"/>
</filter>
<filter id="filter3_i" x="12" y="15" width="504" height="508" filterUnits="userSpaceOnUse" color-interpolation-filters="sRGB">
<feFlood flood-opacity="0" result="BackgroundImageFix"/>
<feBlend mode="normal" in="SourceGraphic" in2="BackgroundImageFix" result="shape"/>
<feColorMatrix in="SourceAlpha" type="matrix" values="0 0 0 0 0 0 0 0 0 0 0 0 0 0 0 0 0 0 127 0" result="hardAlpha"/>
<feOffset dy="4"/>
<feGaussianBlur stdDeviation="6"/>
<feComposite in2="hardAlpha" operator="arithmetic" k2="-1" k3="1"/>
<feColorMatrix type="matrix" values="0 0 0 0 0 0 0 0 0 0 0 0 0 0 0 0 0 0 0.12 0"/>
<feBlend mode="normal" in2="shape" result="effect1_innerShadow"/>
</filter>
<radialGradient id="paint0_radial" cx="0" cy="0" r="1" gradientUnits="userSpaceOnUse" gradientTransform="translate(264 408) rotate(-90) scale(373.5)">
<stop stop-color="#293858"/>
<stop offset="1" stop-color="#293858" stop-opacity="0"/>
</radialGradient>
<linearGradient id="paint1_linear" x1="264" y1="44" x2="264" y2="484" gradientUnits="userSpaceOnUse">
<stop stop-color="#293858"/>
<stop offset="1" stop-color="#293858" stop-opacity="0"/>
</linearGradient>
<linearGradient id="paint2_linear" x1="305.901" y1="175" x2="305.901" y2="196.309" gradientUnits="userSpaceOnUse">
<stop stop-color="white"/>
<stop offset="0.359375" stop-color="white" stop-opacity="0"/>
</linearGradient>
<linearGradient id="paint3_linear" x1="317.832" y1="325.511" x2="317.832" y2="346.82" gradientUnits="userSpaceOnUse">
<stop stop-color="white"/>
<stop offset="0.359375" stop-color="white" stop-opacity="0"/>
</linearGradient>
<linearGradient id="paint4_linear" x1="308.935" y1="205.066" x2="308.935" y2="222.95" gradientUnits="userSpaceOnUse">
<stop stop-color="white"/>
<stop offset="0.359375" stop-color="white" stop-opacity="0"/>
</linearGradient>
<linearGradient id="paint5_linear" x1="332.61" y1="208.487" x2="332.61" y2="226.371" gradientUnits="userSpaceOnUse">
<stop stop-color="white"/>
<stop offset="0.359375" stop-color="white" stop-opacity="0"/>
</linearGradient>
<linearGradient id="paint6_linear" x1="305.909" y1="230.37" x2="305.909" y2="245.59" gradientUnits="userSpaceOnUse">
<stop stop-color="white"/>
<stop offset="0.359375" stop-color="white" stop-opacity="0"/>
</linearGradient>
<linearGradient id="paint7_linear" x1="329.579" y1="233.604" x2="329.579" y2="248.825" gradientUnits="userSpaceOnUse">
<stop stop-color="white"/>
<stop offset="0.359375" stop-color="white" stop-opacity="0"/>
</linearGradient>
<linearGradient id="paint8_linear" x1="348.518" y1="241.031" x2="348.518" y2="256.251" gradientUnits="userSpaceOnUse">
<stop stop-color="white"/>
<stop offset="0.359375" stop-color="white" stop-opacity="0"/>
</linearGradient>
<linearGradient id="paint9_linear" x1="322.568" y1="253.771" x2="322.568" y2="267.089" gradientUnits="userSpaceOnUse">
<stop stop-color="white"/>
<stop offset="0.359375" stop-color="white" stop-opacity="0"/>
</linearGradient>
<linearGradient id="paint10_linear" x1="298.894" y1="250.537" x2="298.894" y2="263.855" gradientUnits="userSpaceOnUse">
<stop stop-color="white"/>
<stop offset="0.359375" stop-color="white" stop-opacity="0"/>
</linearGradient>
<linearGradient id="paint11_linear" x1="341.707" y1="261.2" x2="341.707" y2="274.518" gradientUnits="userSpaceOnUse">
<stop stop-color="white"/>
<stop offset="0.359375" stop-color="white" stop-opacity="0"/>
</linearGradient>
<linearGradient id="paint12_linear" x1="313.098" y1="269.577" x2="313.098" y2="280.993" gradientUnits="userSpaceOnUse">
<stop stop-color="white"/>
<stop offset="0.359375" stop-color="white" stop-opacity="0"/>
</linearGradient>
<linearGradient id="paint13_linear" x1="332.234" y1="276.806" x2="332.234" y2="288.221" gradientUnits="userSpaceOnUse">
<stop stop-color="white"/>
<stop offset="0.359375" stop-color="white" stop-opacity="0"/>
</linearGradient>
<linearGradient id="paint14_linear" x1="289.616" y1="266.144" x2="289.616" y2="277.56" gradientUnits="userSpaceOnUse">
<stop stop-color="white"/>
<stop offset="0.359375" stop-color="white" stop-opacity="0"/>
</linearGradient>
<linearGradient id="paint15_linear" x1="302.674" y1="280.797" x2="302.674" y2="290.31" gradientUnits="userSpaceOnUse">
<stop stop-color="white"/>
<stop offset="0.359375" stop-color="white" stop-opacity="0"/>
</linearGradient>
<linearGradient id="paint16_linear" x1="310.831" y1="295.073" x2="310.831" y2="303.445" gradientUnits="userSpaceOnUse">
<stop stop-color="white"/>
<stop offset="0.359375" stop-color="white" stop-opacity="0"/>
</linearGradient>
<linearGradient id="paint17_linear" x1="300.788" y1="299.251" x2="300.788" y2="306.1" gradientUnits="userSpaceOnUse">
<stop stop-color="white"/>
<stop offset="0.359375" stop-color="white" stop-opacity="0"/>
</linearGradient>
<linearGradient id="paint18_linear" x1="291.883" y1="287.833" x2="291.883" y2="296.204" gradientUnits="userSpaceOnUse">
<stop stop-color="white"/>
<stop offset="0.359375" stop-color="white" stop-opacity="0"/>
</linearGradient>
<linearGradient id="paint19_linear" x1="279.011" y1="277.562" x2="279.011" y2="287.075" gradientUnits="userSpaceOnUse">
<stop stop-color="white"/>
<stop offset="0.359375" stop-color="white" stop-opacity="0"/>
</linearGradient>
<linearGradient id="paint20_linear" x1="278.821" y1="241.789" x2="278.821" y2="251.301" gradientUnits="userSpaceOnUse">
<stop stop-color="white"/>
<stop offset="0.359375" stop-color="white" stop-opacity="0"/>
</linearGradient>
<linearGradient id="paint21_linear" x1="280.897" y1="226.182" x2="280.897" y2="234.553" gradientUnits="userSpaceOnUse">
<stop stop-color="white"/>
<stop offset="0.359375" stop-color="white" stop-opacity="0"/>
</linearGradient>
<linearGradient id="paint22_linear" x1="285.451" y1="214.006" x2="285.451" y2="220.855" gradientUnits="userSpaceOnUse">
<stop stop-color="white"/>
<stop offset="0.359375" stop-color="white" stop-opacity="0"/>
</linearGradient>
<linearGradient id="paint23_linear" x1="277.495" y1="206.014" x2="277.495" y2="214.386" gradientUnits="userSpaceOnUse">
<stop stop-color="white"/>
<stop offset="0.359375" stop-color="white" stop-opacity="0"/>
</linearGradient>
<linearGradient id="paint24_linear" x1="321.623" y1="288.026" x2="321.623" y2="297.539" gradientUnits="userSpaceOnUse">
<stop stop-color="white"/>
<stop offset="0.359375" stop-color="white" stop-opacity="0"/>
</linearGradient>
<linearGradient id="paint25_linear" x1="266.702" y1="199.356" x2="266.702" y2="208.868" gradientUnits="userSpaceOnUse">
<stop stop-color="white"/>
<stop offset="0.359375" stop-color="white" stop-opacity="0"/>
</linearGradient>
<linearGradient id="paint26_linear" x1="269.916" y1="219.524" x2="269.916" y2="229.037" gradientUnits="userSpaceOnUse">
<stop stop-color="white"/>
<stop offset="0.359375" stop-color="white" stop-opacity="0"/>
</linearGradient>
<linearGradient id="paint27_linear" x1="264.616" y1="236.834" x2="264.616" y2="248.25" gradientUnits="userSpaceOnUse">
<stop stop-color="white"/>
<stop offset="0.359375" stop-color="white" stop-opacity="0"/>
</linearGradient>
<linearGradient id="paint28_linear" x1="247.378" y1="234.932" x2="247.378" y2="248.25" gradientUnits="userSpaceOnUse">
<stop stop-color="white"/>
<stop offset="0.359375" stop-color="white" stop-opacity="0"/>
</linearGradient>
<linearGradient id="paint29_linear" x1="227.305" y1="237.595" x2="227.305" y2="252.816" gradientUnits="userSpaceOnUse">
<stop stop-color="white"/>
<stop offset="0.359375" stop-color="white" stop-opacity="0"/>
</linearGradient>
<linearGradient id="paint30_linear" x1="205.328" y1="245.789" x2="205.328" y2="263.673" gradientUnits="userSpaceOnUse">
<stop stop-color="white"/>
<stop offset="0.359375" stop-color="white" stop-opacity="0"/>
</linearGradient>
<linearGradient id="paint31_linear" x1="182.605" y1="260.629" x2="182.605" y2="281.938" gradientUnits="userSpaceOnUse">
<stop stop-color="white"/>
<stop offset="0.359375" stop-color="white" stop-opacity="0"/>
</linearGradient>
<linearGradient id="paint32_linear" x1="196.427" y1="223.513" x2="196.427" y2="241.397" gradientUnits="userSpaceOnUse">
<stop stop-color="white"/>
<stop offset="0.359375" stop-color="white" stop-opacity="0"/>
</linearGradient>
<linearGradient id="paint33_linear" x1="218.402" y1="215.336" x2="218.402" y2="230.556" gradientUnits="userSpaceOnUse">
<stop stop-color="white"/>
<stop offset="0.359375" stop-color="white" stop-opacity="0"/>
</linearGradient>
<linearGradient id="paint34_linear" x1="215.184" y1="195.168" x2="215.184" y2="210.389" gradientUnits="userSpaceOnUse">
<stop stop-color="white"/>
<stop offset="0.359375" stop-color="white" stop-opacity="0"/>
</linearGradient>
<linearGradient id="paint35_linear" x1="235.256" y1="192.509" x2="235.256" y2="205.827" gradientUnits="userSpaceOnUse">
<stop stop-color="white"/>
<stop offset="0.359375" stop-color="white" stop-opacity="0"/>
</linearGradient>
<linearGradient id="paint36_linear" x1="252.489" y1="194.411" x2="252.489" y2="205.826" gradientUnits="userSpaceOnUse">
<stop stop-color="white"/>
<stop offset="0.359375" stop-color="white" stop-opacity="0"/>
</linearGradient>
<linearGradient id="paint37_linear" x1="255.709" y1="214.578" x2="255.709" y2="225.994" gradientUnits="userSpaceOnUse">
<stop stop-color="white"/>
<stop offset="0.359375" stop-color="white" stop-opacity="0"/>
</linearGradient>
<linearGradient id="paint38_linear" x1="238.485" y1="212.866" x2="238.485" y2="226.184" gradientUnits="userSpaceOnUse">
<stop stop-color="white"/>
<stop offset="0.359375" stop-color="white" stop-opacity="0"/>
</linearGradient>
<linearGradient id="paint39_linear" x1="219.732" y1="269.951" x2="219.732" y2="276.8" gradientUnits="userSpaceOnUse">
<stop stop-color="white"/>
<stop offset="0.359375" stop-color="white" stop-opacity="0"/>
</linearGradient>
<linearGradient id="paint40_linear" x1="233.357" y1="266.716" x2="233.357" y2="275.088" gradientUnits="userSpaceOnUse">
<stop stop-color="white"/>
<stop offset="0.359375" stop-color="white" stop-opacity="0"/>
</linearGradient>
<linearGradient id="paint41_linear" x1="248.324" y1="259.871" x2="248.324" y2="269.384" gradientUnits="userSpaceOnUse">
<stop stop-color="white"/>
<stop offset="0.359375" stop-color="white" stop-opacity="0"/>
</linearGradient>
<linearGradient id="paint42_linear" x1="251.927" y1="273.183" x2="251.927" y2="284.598" gradientUnits="userSpaceOnUse">
<stop stop-color="white"/>
<stop offset="0.359375" stop-color="white" stop-opacity="0"/>
</linearGradient>
<linearGradient id="paint43_linear" x1="233.74" y1="278.7" x2="233.74" y2="288.213" gradientUnits="userSpaceOnUse">
<stop stop-color="white"/>
<stop offset="0.359375" stop-color="white" stop-opacity="0"/>
</linearGradient>
<linearGradient id="paint44_linear" x1="217.637" y1="279.656" x2="217.637" y2="288.027" gradientUnits="userSpaceOnUse">
<stop stop-color="white"/>
<stop offset="0.359375" stop-color="white" stop-opacity="0"/>
</linearGradient>
<linearGradient id="paint45_linear" x1="217.834" y1="291.637" x2="217.834" y2="301.15" gradientUnits="userSpaceOnUse">
<stop stop-color="white"/>
<stop offset="0.359375" stop-color="white" stop-opacity="0"/>
</linearGradient>
<linearGradient id="paint46_linear" x1="237.152" y1="292.214" x2="237.152" y2="303.63" gradientUnits="userSpaceOnUse">
<stop stop-color="white"/>
<stop offset="0.359375" stop-color="white" stop-opacity="0"/>
</linearGradient>
<linearGradient id="paint47_linear" x1="259.695" y1="287.833" x2="259.695" y2="301.151" gradientUnits="userSpaceOnUse">
<stop stop-color="white"/>
<stop offset="0.359375" stop-color="white" stop-opacity="0"/>
</linearGradient>
<linearGradient id="paint48_linear" x1="272.947" y1="302.483" x2="272.947" y2="317.704" gradientUnits="userSpaceOnUse">
<stop stop-color="white"/>
<stop offset="0.359375" stop-color="white" stop-opacity="0"/>
</linearGradient>
<linearGradient id="paint49_linear" x1="245.104" y1="306.67" x2="245.104" y2="319.988" gradientUnits="userSpaceOnUse">
<stop stop-color="white"/>
<stop offset="0.359375" stop-color="white" stop-opacity="0"/>
</linearGradient>
<linearGradient id="paint50_linear" x1="229.386" y1="319.612" x2="229.386" y2="332.93" gradientUnits="userSpaceOnUse">
<stop stop-color="white"/>
<stop offset="0.359375" stop-color="white" stop-opacity="0"/>
</linearGradient>
<linearGradient id="paint51_linear" x1="242.452" y1="334.462" x2="242.452" y2="349.682" gradientUnits="userSpaceOnUse">
<stop stop-color="white"/>
<stop offset="0.359375" stop-color="white" stop-opacity="0"/>
</linearGradient>
<linearGradient id="paint52_linear" x1="277.301" y1="334.832" x2="277.301" y2="352.717" gradientUnits="userSpaceOnUse">
<stop stop-color="white"/>
<stop offset="0.359375" stop-color="white" stop-opacity="0"/>
</linearGradient>
<linearGradient id="paint53_linear" x1="258.172" y1="321.517" x2="258.172" y2="336.737" gradientUnits="userSpaceOnUse">
<stop stop-color="white"/>
<stop offset="0.359375" stop-color="white" stop-opacity="0"/>
</linearGradient>
<linearGradient id="paint54_linear" x1="291.891" y1="315.805" x2="291.891" y2="333.69" gradientUnits="userSpaceOnUse">
<stop stop-color="white"/>
<stop offset="0.359375" stop-color="white" stop-opacity="0"/>
</linearGradient>
<linearGradient id="paint55_linear" x1="221.431" y1="305.153" x2="221.431" y2="316.568" gradientUnits="userSpaceOnUse">
<stop stop-color="white"/>
<stop offset="0.359375" stop-color="white" stop-opacity="0"/>
</linearGradient>
</defs>
</svg>
