<svg width="528" height="528" viewBox="0 0 528 528" fill="none" xmlns="http://www.w3.org/2000/svg">
<circle cx="264" cy="264" r="220" fill="url(#paint0_radial)"/>
<circle cx="264" cy="264" r="220.5" stroke="url(#paint1_linear)"/>
<g opacity="0.4" filter="url(#filter0_f)">
<circle cx="264" cy="269" r="185" stroke="#14CABF" stroke-width="2"/>
</g>
<g opacity="0.4" filter="url(#filter1_f)">
<circle cx="264" cy="268" r="142" stroke="#14CABF" stroke-width="2"/>
</g>
<path d="M395.66 210.806C381.552 175.887 354.151 148.003 319.484 133.288" stroke="#14CABF" stroke-width="2"/>
<path d="M437.383 193.948C418.805 147.964 382.72 111.244 337.067 91.8654" stroke="#14CABF" stroke-width="2"/>
<path d="M374.956 148.682L380.089 153.815L381.333 152.57L378.31 149.547L378.359 149.498L380.441 149.519C383.27 149.649 384.343 149.371 385.162 148.552C386.41 147.304 386.273 145.402 384.729 143.859C383.218 142.347 381.277 142.214 379.868 143.63L381.312 145.075C381.998 144.383 382.856 144.397 383.513 145.054C384.146 145.687 384.223 146.552 383.59 147.184C383.017 147.757 382.272 147.8 380.989 147.775L376.053 147.585L374.956 148.682Z" fill="#14CABF"/>
<path d="M319.484 133.288C284.817 118.573 245.724 118.232 210.806 132.34" stroke="#14CABF" stroke-width="2"/>
<path d="M337.067 91.8656C291.414 72.4871 239.933 72.0378 193.949 90.6166" stroke="#14CABF" stroke-width="2"/>
<path d="M266.33 93.8182H264.307L261.786 95.4141V97.3232L264.118 95.8615H264.177V104H266.33V93.8182Z" fill="#14CABF"/>
<path d="M394.712 319.484C409.427 284.817 409.768 245.724 395.66 210.806" stroke="#14CABF" stroke-width="2"/>
<path d="M436.134 337.067C455.513 291.414 455.962 239.933 437.383 193.949" stroke="#14CABF" stroke-width="2"/>
<path d="M423.861 263.975C423.861 266.261 425.119 267.897 426.859 267.892C428.126 267.897 429.031 267.092 429.22 265.595L429.3 265.595C429.504 266.734 430.309 267.519 431.452 267.514C433.058 267.519 434.321 266.112 434.321 264.004C434.321 261.916 433.098 260.345 431.338 260.315L431.338 262.379C432.114 262.403 432.616 263.114 432.616 263.994C432.616 264.864 432.089 265.446 431.323 265.441C430.523 265.446 429.981 264.765 429.981 263.786L429.981 262.836L428.4 262.836L428.4 263.786C428.4 264.939 427.823 265.66 427.003 265.655C426.192 265.66 425.636 264.964 425.636 263.979C425.636 263.03 426.133 262.319 426.879 262.279L426.879 260.112C425.099 260.146 423.861 261.737 423.861 263.975Z" fill="#14CABF"/>
<path d="M317.194 395.66C352.113 381.552 379.997 354.151 394.712 319.484" stroke="#14CABF" stroke-width="2"/>
<path d="M334.052 437.383C380.036 418.805 416.756 382.72 436.135 337.067" stroke="#14CABF" stroke-width="2"/>
<path d="M381.283 375.523L377.827 378.978L376.562 377.713L375.106 379.168L376.372 380.434L375.479 381.327L376.699 382.546L377.592 381.654L382.306 386.368L384.211 384.462L382.482 376.721L381.283 375.523ZM379.019 380.226L380.97 378.275L381.026 378.331L382.13 383.225L382.074 383.281L379.019 380.226Z" fill="#14CABF"/>
<path d="M208.516 394.712C243.183 409.427 282.276 409.768 317.194 395.66" stroke="#14CABF" stroke-width="2"/>
<path d="M190.933 436.134C236.586 455.513 288.067 455.962 334.051 437.383" stroke="#14CABF" stroke-width="2"/>
<path d="M263.968 423.861C261.701 423.861 260.159 425.337 260.164 427.396C260.159 429.344 261.522 430.746 263.356 430.746C264.251 430.746 265.022 430.374 265.38 429.871L265.439 429.871L265.176 432.422L260.726 432.422L260.726 434.182L266.951 434.182L267.433 428.812L265.519 428.469C265.206 428.892 264.599 429.156 263.998 429.156C262.973 429.151 262.238 428.41 262.238 427.341C262.238 426.282 262.958 425.551 263.968 425.551C264.823 425.551 265.514 426.088 265.564 426.879L267.652 426.879C267.612 425.119 266.076 423.861 263.968 423.861Z" fill="#14CABF"/>
<path d="M132.34 317.194C146.448 352.113 173.849 379.997 208.516 394.712" stroke="#14CABF" stroke-width="2"/>
<path d="M90.6167 334.052C109.195 380.036 145.28 416.756 190.933 436.135" stroke="#14CABF" stroke-width="2"/>
<path d="M150.882 376.96C149.286 375.35 147.142 375.307 145.679 376.777C144.326 378.123 144.294 380.039 145.57 381.315C146.361 382.106 147.441 382.426 148.4 382.113L148.45 382.163C147.04 383.558 145.676 383.938 144.737 382.999C144.185 382.447 144.09 381.748 144.477 381.129L142.976 379.628C141.935 380.957 141.995 382.866 143.433 384.304C145.212 386.082 147.796 385.784 150.221 383.372C152.861 380.739 152.355 378.447 150.882 376.96ZM149.694 378.162C150.397 378.865 150.351 379.951 149.648 380.654C148.945 381.351 147.845 381.389 147.145 380.69C146.442 379.987 146.481 378.921 147.198 378.211C147.915 377.487 148.991 377.459 149.694 378.162Z" fill="#14CABF"/>
<path d="M133.288 208.516C118.573 243.183 118.232 282.276 132.34 317.194" stroke="#14CABF" stroke-width="2"/>
<path d="M91.8656 190.933C72.4871 236.586 72.0378 288.067 90.6166 334.051" stroke="#14CABF" stroke-width="2"/>
<path d="M104 266.435L104 264.213L95.603 259.987L93.8182 259.987L93.8182 267.131L95.5781 267.131L95.5781 262.214L95.6477 262.214L104 266.435Z" fill="#14CABF"/>
<path d="M133.288 208.516C118.573 243.183 118.232 282.276 132.34 317.194" stroke="#14CABF" stroke-width="2"/>
<path d="M91.8656 190.933C72.4871 236.586 72.0378 288.067 90.6166 334.051" stroke="#14CABF" stroke-width="2"/>
<path d="M104 266.435L104 264.213L95.603 259.987L93.8182 259.987L93.8182 267.131L95.5781 267.131L95.5781 262.214L95.6477 262.214L104 266.435Z" fill="#14CABF"/>
<path d="M210.806 132.34C175.887 146.448 148.003 173.849 133.288 208.516" stroke="#14CABF" stroke-width="2"/>
<path d="M193.948 90.6166C147.964 109.195 111.244 145.28 91.8654 190.933" stroke="#14CABF" stroke-width="2"/>
<path d="M150.958 150.964C152.582 149.34 152.881 147.305 151.717 146.134C150.814 145.238 149.387 145.196 148.378 145.916L148.328 145.867C148.926 144.96 148.814 143.772 148.026 142.977C146.908 141.866 145.017 142.113 143.562 143.568C142.103 145.027 141.857 146.918 142.974 148.029C143.758 148.82 144.943 148.943 145.864 148.331L145.913 148.381C145.179 149.404 145.228 150.824 146.131 151.72C147.295 152.891 149.334 152.589 150.958 150.964ZM149.84 149.847C149.116 150.571 148.202 150.627 147.594 150.019C146.972 149.397 147.031 148.437 147.731 147.737C148.427 147.041 149.39 146.978 150.012 147.6C150.624 148.212 150.561 149.126 149.84 149.847ZM146.624 146.63C146.015 147.238 145.186 147.273 144.616 146.704C144.054 146.141 144.092 145.329 144.708 144.714C145.319 144.102 146.138 144.064 146.697 144.623C147.267 145.192 147.228 146.025 146.624 146.63Z" fill="#14CABF"/>
<g opacity="0.3" filter="url(#filter2_i)">
<path d="M264 20C296.437 20 328.555 26.3888 358.523 38.8018C388.49 51.2147 415.719 69.4086 438.655 92.3446C461.591 115.281 479.785 142.51 492.198 172.477C504.611 202.445 511 234.564 511 267C511 299.437 504.611 331.555 492.198 361.523C479.785 391.49 461.591 418.719 438.655 441.655C415.719 464.591 388.49 482.785 358.523 495.198C328.555 507.611 296.436 514 264 514C231.563 514 199.445 507.611 169.477 495.198C139.51 482.785 112.281 464.591 89.3446 441.655C66.4085 418.719 48.2146 391.49 35.8017 361.523C23.3888 331.555 17 299.436 17 267C17 234.563 23.3889 202.444 35.8018 172.477C48.2147 142.51 66.4086 115.281 89.3447 92.3445C112.281 69.4085 139.51 51.2146 169.477 38.8017C199.445 26.3888 231.564 20 264 20L264 20Z" stroke="#293858" stroke-width="10"/>
</g>
<defs>
<filter id="filter0_f" x="74" y="79" width="380" height="380" filterUnits="userSpaceOnUse" color-interpolation-filters="sRGB">
<feFlood flood-opacity="0" result="BackgroundImageFix"/>
<feBlend mode="normal" in="SourceGraphic" in2="BackgroundImageFix" result="shape"/>
<feGaussianBlur stdDeviation="2" result="effect1_foregroundBlur"/>
</filter>
<filter id="filter1_f" x="117" y="121" width="294" height="294" filterUnits="userSpaceOnUse" color-interpolation-filters="sRGB">
<feFlood flood-opacity="0" result="BackgroundImageFix"/>
<feBlend mode="normal" in="SourceGraphic" in2="BackgroundImageFix" result="shape"/>
<feGaussianBlur stdDeviation="2" result="effect1_foregroundBlur"/>
</filter>
<filter id="filter2_i" x="12" y="15" width="504" height="508" filterUnits="userSpaceOnUse" color-interpolation-filters="sRGB">
<feFlood flood-opacity="0" result="BackgroundImageFix"/>
<feBlend mode="normal" in="SourceGraphic" in2="BackgroundImageFix" result="shape"/>
<feColorMatrix in="SourceAlpha" type="matrix" values="0 0 0 0 0 0 0 0 0 0 0 0 0 0 0 0 0 0 127 0" result="hardAlpha"/>
<feOffset dy="4"/>
<feGaussianBlur stdDeviation="6"/>
<feComposite in2="hardAlpha" operator="arithmetic" k2="-1" k3="1"/>
<feColorMatrix type="matrix" values="0 0 0 0 0 0 0 0 0 0 0 0 0 0 0 0 0 0 0.12 0"/>
<feBlend mode="normal" in2="shape" result="effect1_innerShadow"/>
</filter>
<radialGradient id="paint0_radial" cx="0" cy="0" r="1" gradientUnits="userSpaceOnUse" gradientTransform="translate(264 408) rotate(-90) scale(373.5)">
<stop stop-color="#293858"/>
<stop offset="1" stop-color="#293858" stop-opacity="0"/>
</radialGradient>
<linearGradient id="paint1_linear" x1="264" y1="44" x2="264" y2="484" gradientUnits="userSpaceOnUse">
<stop stop-color="#293858"/>
<stop offset="1" stop-color="#293858" stop-opacity="0"/>
</linearGradient>
</defs>
</svg>
