<svg width="24" height="20" viewBox="0 0 24 20" fill="none" xmlns="http://www.w3.org/2000/svg">
<path d="M21.3082 5.51181C21.3232 5.71273 21.3232 5.91369 21.3232 6.1146C21.3232 12.2428 16.4257 19.3039 7.47444 19.3039C4.71672 19.3039 2.15494 18.5433 0 17.2229C0.391819 17.266 0.768517 17.2803 1.17541 17.2803C3.45086 17.2803 5.54554 16.5484 7.21825 15.2998C5.07839 15.2567 3.28512 13.922 2.66727 12.085C2.96868 12.128 3.27005 12.1567 3.58654 12.1567C4.02354 12.1567 4.46058 12.0993 4.86743 11.9989C2.63716 11.5683 0.964404 9.70255 0.964404 7.44932V7.39193C1.61236 7.73638 2.3659 7.95165 3.16452 7.98032C1.85348 7.1479 0.994554 5.72709 0.994554 4.11967C0.994554 3.25858 1.23562 2.46922 1.65759 1.78033C4.05364 4.59329 7.65525 6.43029 11.6938 6.63125C11.6185 6.2868 11.5733 5.92805 11.5733 5.56924C11.5733 3.01459 13.7433 0.933596 16.4407 0.933596C17.8421 0.933596 19.108 1.49332 19.9971 2.39748C21.0971 2.19657 22.152 1.80905 23.0863 1.27804C22.7246 2.35445 21.9561 3.25862 20.9464 3.83265C21.926 3.73224 22.8753 3.47385 23.7493 3.11509C23.0864 4.03357 22.2575 4.85159 21.3082 5.51181Z" fill="white"/>
</svg>
