<svg width="24" height="17" viewBox="0 0 24 17" fill="none" xmlns="http://www.w3.org/2000/svg">
<path fill-rule="evenodd" clip-rule="evenodd" d="M21.3783 0.601909C22.4116 0.878497 23.2236 1.69048 23.5002 2.72374C24 4.59467 24 8.50049 24 8.50049C24 8.50049 24 12.4063 23.4982 14.2772C23.2216 15.3105 22.4096 16.1225 21.3764 16.3991C19.5054 16.9009 12 16.9009 12 16.9009C12 16.9009 4.49457 16.9009 2.62364 16.3991C1.59039 16.1225 0.7784 15.3105 0.501811 14.2772C0 12.4063 0 8.50049 0 8.50049C0 8.50049 0 4.59467 0.501811 2.72374C0.7784 1.69048 1.59039 0.878497 2.62364 0.601909C4.49457 0.100098 12 0.100098 12 0.100098C12 0.100098 19.5054 0.100098 21.3783 0.601909ZM15.8367 8.50048L9.59961 12.1001V4.90088L15.8367 8.50048Z" fill="white"/>
</svg>
