<svg width="1080" height="635" viewBox="0 0 1080 635" fill="none" xmlns="http://www.w3.org/2000/svg">
<circle cx="50.241" cy="98.1401" r="1.1399" fill="white" fill-opacity="0.6"/>
<circle cx="101.622" cy="98.1401" r="1.1399" fill="white" fill-opacity="0.6"/>
<circle cx="153.003" cy="98.1401" r="1.1399" fill="white" fill-opacity="0.6"/>
<circle cx="204.384" cy="98.1401" r="1.1399" fill="white" fill-opacity="0.6"/>
<circle cx="255.765" cy="98.1401" r="1.1399" fill="white" fill-opacity="0.6"/>
<circle cx="307.146" cy="98.1401" r="1.1399" fill="white" fill-opacity="0.6"/>
<circle cx="358.527" cy="98.1401" r="1.1399" fill="white" fill-opacity="0.6"/>
<circle cx="409.908" cy="98.1401" r="1.1399" fill="white" fill-opacity="0.6"/>
<circle cx="461.289" cy="98.1401" r="1.1399" fill="white" fill-opacity="0.6"/>
<circle cx="512.67" cy="98.1401" r="1.1399" fill="white" fill-opacity="0.6"/>
<circle cx="564.05" cy="98.1401" r="1.1399" fill="white" fill-opacity="0.6"/>
<circle cx="615.431" cy="98.1401" r="1.1399" fill="white" fill-opacity="0.6"/>
<circle cx="666.812" cy="98.1401" r="1.1399" fill="white" fill-opacity="0.6"/>
<circle cx="718.193" cy="98.1401" r="1.1399" fill="white" fill-opacity="0.6"/>
<circle cx="769.574" cy="98.1401" r="1.1399" fill="white" fill-opacity="0.6"/>
<circle cx="820.955" cy="98.1401" r="1.1399" fill="white" fill-opacity="0.6"/>
<circle cx="872.336" cy="98.1401" r="1.1399" fill="white" fill-opacity="0.6"/>
<circle cx="923.717" cy="98.1401" r="1.1399" fill="white" fill-opacity="0.6"/>
<g opacity="0.5">
<circle cx="974.479" cy="98.5128" r="1.51262" fill="white"/>
<circle cx="974.479" cy="146.623" r="1.51262" fill="white"/>
<path d="M938.47 122.67C938.47 116.304 943.39 111.087 949.635 110.614V115.883C946.291 116.335 943.712 119.201 943.712 122.67C943.712 126.452 946.778 129.519 950.561 129.519C954.344 129.519 957.41 126.452 957.41 122.67C957.41 122.567 957.408 122.465 957.403 122.364H962.648C962.651 122.466 962.652 122.568 962.652 122.67C962.652 129.347 957.239 134.76 950.561 134.76C943.884 134.76 938.47 129.347 938.47 122.67Z" fill="white"/>
</g>
<circle cx="1026.23" cy="98.1401" r="1.1399" fill="white" fill-opacity="0.6"/>
<circle cx="50.241" cy="1.13977" r="1.1399" fill="white" fill-opacity="0.6"/>
<circle cx="101.622" cy="1.13977" r="1.1399" fill="white" fill-opacity="0.6"/>
<circle cx="153.003" cy="1.13977" r="1.1399" fill="white" fill-opacity="0.6"/>
<circle cx="204.384" cy="1.13977" r="1.1399" fill="white" fill-opacity="0.6"/>
<circle cx="255.765" cy="1.13977" r="1.1399" fill="white" fill-opacity="0.6"/>
<g opacity="0.5">
<ellipse cx="306.398" cy="1.50846" rx="1.5086" ry="1.5086" fill="white"/>
<ellipse cx="306.398" cy="49.4909" rx="1.5086" ry="1.5086" fill="white"/>
<g opacity="0.4">
<path d="M275.331 12.0682H271.235V38.4928H275.331V22.0182V12.0682Z" fill="white"/>
<path d="M280.222 34.705H284.194L289.721 22.0182H289.794V38.4928H293.799V12.0682H290.029L282.454 29.2859L280.222 34.705Z" fill="white"/>
</g>
</g>
<circle cx="358.146" cy="1.13977" r="1.1399" fill="white" fill-opacity="0.6"/>
<circle cx="409.527" cy="1.13977" r="1.1399" fill="white" fill-opacity="0.6"/>
<circle cx="460.908" cy="1.13977" r="1.1399" fill="white" fill-opacity="0.6"/>
<circle cx="512.289" cy="1.13977" r="1.1399" fill="white" fill-opacity="0.6"/>
<circle cx="563.67" cy="1.13977" r="1.1399" fill="white" fill-opacity="0.6"/>
<circle cx="615.05" cy="1.13977" r="1.1399" fill="white" fill-opacity="0.6"/>
<circle cx="666.431" cy="1.13977" r="1.1399" fill="white" fill-opacity="0.6"/>
<circle cx="717.812" cy="1.13977" r="1.1399" fill="white" fill-opacity="0.6"/>
<circle cx="769.193" cy="1.13977" r="1.1399" fill="white" fill-opacity="0.6"/>
<circle cx="820.574" cy="1.13977" r="1.1399" fill="white" fill-opacity="0.6"/>
<circle cx="871.955" cy="1.13977" r="1.1399" fill="white" fill-opacity="0.6"/>
<circle cx="923.336" cy="1.13977" r="1.1399" fill="white" fill-opacity="0.6"/>
<circle cx="974.717" cy="1.13977" r="1.1399" fill="white" fill-opacity="0.6"/>
<circle cx="1026.1" cy="1.13977" r="1.1399" fill="white" fill-opacity="0.6"/>
<circle cx="50.241" cy="146.776" r="1.1399" fill="white" fill-opacity="0.6"/>
<circle cx="101.622" cy="146.776" r="1.1399" fill="white" fill-opacity="0.6"/>
<circle cx="153.003" cy="146.776" r="1.1399" fill="white" fill-opacity="0.6"/>
<circle cx="204.384" cy="146.776" r="1.1399" fill="white" fill-opacity="0.6"/>
<circle cx="255.765" cy="146.776" r="1.1399" fill="white" fill-opacity="0.6"/>
<circle cx="307.146" cy="146.776" r="1.1399" fill="white" fill-opacity="0.6"/>
<circle cx="358.527" cy="146.776" r="1.1399" fill="white" fill-opacity="0.6"/>
<circle cx="409.908" cy="146.776" r="1.1399" fill="white" fill-opacity="0.6"/>
<circle cx="461.289" cy="146.776" r="1.1399" fill="white" fill-opacity="0.6"/>
<circle cx="512.67" cy="146.776" r="1.1399" fill="white" fill-opacity="0.6"/>
<circle cx="564.05" cy="146.776" r="1.1399" fill="white" fill-opacity="0.6"/>
<circle cx="615.431" cy="146.776" r="1.1399" fill="white" fill-opacity="0.6"/>
<circle cx="666.812" cy="146.776" r="1.1399" fill="white" fill-opacity="0.6"/>
<circle cx="718.193" cy="146.776" r="1.1399" fill="white" fill-opacity="0.6"/>
<circle cx="769.574" cy="146.776" r="1.1399" fill="white" fill-opacity="0.6"/>
<circle cx="820.955" cy="146.776" r="1.1399" fill="white" fill-opacity="0.6"/>
<circle cx="872.336" cy="146.776" r="1.1399" fill="white" fill-opacity="0.6"/>
<circle cx="923.717" cy="146.776" r="1.1399" fill="white" fill-opacity="0.6"/>
<circle cx="975.098" cy="146.776" r="1.1399" fill="white" fill-opacity="0.6"/>
<circle cx="1026.48" cy="146.776" r="1.1399" fill="white" fill-opacity="0.6"/>
<circle cx="50.241" cy="49.7757" r="1.1399" fill="white" fill-opacity="0.6"/>
<circle cx="101.622" cy="49.7757" r="1.1399" fill="white" fill-opacity="0.6"/>
<circle cx="153.003" cy="49.7757" r="1.1399" fill="white" fill-opacity="0.6"/>
<circle cx="204.384" cy="49.7757" r="1.1399" fill="white" fill-opacity="0.6"/>
<circle cx="255.765" cy="49.7757" r="1.1399" fill="white" fill-opacity="0.6"/>
<circle cx="307.146" cy="49.7757" r="1.1399" fill="white" fill-opacity="0.6"/>
<circle cx="358.527" cy="49.7757" r="1.1399" fill="white" fill-opacity="0.6"/>
<circle cx="409.908" cy="49.7757" r="1.1399" fill="white" fill-opacity="0.6"/>
<circle cx="461.289" cy="49.7757" r="1.1399" fill="white" fill-opacity="0.6"/>
<circle cx="512.67" cy="49.7757" r="1.1399" fill="white" fill-opacity="0.6"/>
<circle cx="564.05" cy="49.7757" r="1.1399" fill="white" fill-opacity="0.6"/>
<circle cx="615.431" cy="49.7757" r="1.1399" fill="white" fill-opacity="0.6"/>
<circle cx="666.812" cy="49.7757" r="1.1399" fill="white" fill-opacity="0.6"/>
<circle cx="718.193" cy="49.7757" r="1.1399" fill="white" fill-opacity="0.6"/>
<circle cx="769.574" cy="49.7757" r="1.1399" fill="white" fill-opacity="0.6"/>
<circle cx="820.955" cy="49.7757" r="1.1399" fill="white" fill-opacity="0.6"/>
<circle cx="872.336" cy="49.7757" r="1.1399" fill="white" fill-opacity="0.6"/>
<circle cx="923.717" cy="49.7757" r="1.1399" fill="white" fill-opacity="0.6"/>
<circle cx="975.098" cy="49.7757" r="1.1399" fill="white" fill-opacity="0.6"/>
<circle cx="1026.48" cy="49.7757" r="1.1399" fill="white" fill-opacity="0.6"/>
<circle cx="50.241" cy="195.412" r="1.1399" fill="white" fill-opacity="0.6"/>
<circle cx="101.622" cy="195.412" r="1.1399" fill="white" fill-opacity="0.6"/>
<circle cx="153.003" cy="195.412" r="1.1399" fill="white" fill-opacity="0.6"/>
<circle cx="204.384" cy="195.412" r="1.1399" fill="white" fill-opacity="0.6"/>
<circle cx="255.765" cy="195.412" r="1.1399" fill="white" fill-opacity="0.6"/>
<circle cx="307.146" cy="195.412" r="1.1399" fill="white" fill-opacity="0.6"/>
<circle cx="358.527" cy="195.412" r="1.1399" fill="white" fill-opacity="0.6"/>
<circle cx="409.908" cy="195.412" r="1.1399" fill="white" fill-opacity="0.6"/>
<circle cx="461.289" cy="195.412" r="1.1399" fill="white" fill-opacity="0.6"/>
<circle cx="512.67" cy="195.412" r="1.1399" fill="white" fill-opacity="0.6"/>
<circle cx="564.05" cy="195.412" r="1.1399" fill="white" fill-opacity="0.6"/>
<circle cx="615.431" cy="195.412" r="1.1399" fill="white" fill-opacity="0.6"/>
<circle cx="666.812" cy="195.412" r="1.1399" fill="white" fill-opacity="0.6"/>
<circle cx="718.193" cy="195.412" r="1.1399" fill="white" fill-opacity="0.6"/>
<circle cx="769.574" cy="195.412" r="1.1399" fill="white" fill-opacity="0.6"/>
<circle cx="820.955" cy="195.412" r="1.1399" fill="white" fill-opacity="0.6"/>
<circle cx="872.336" cy="195.412" r="1.1399" fill="white" fill-opacity="0.6"/>
<circle cx="923.717" cy="195.412" r="1.1399" fill="white" fill-opacity="0.6"/>
<circle cx="975.098" cy="195.412" r="1.1399" fill="white" fill-opacity="0.6"/>
<circle cx="1026.48" cy="195.412" r="1.1399" fill="white" fill-opacity="0.6"/>
<circle cx="50.241" cy="244.047" r="1.1399" fill="white" fill-opacity="0.6"/>
<circle cx="101.622" cy="244.047" r="1.1399" fill="white" fill-opacity="0.6"/>
<circle cx="153.003" cy="244.047" r="1.1399" fill="white" fill-opacity="0.6"/>
<circle cx="204.384" cy="244.047" r="1.1399" fill="white" fill-opacity="0.6"/>
<circle cx="255.765" cy="244.047" r="1.1399" fill="white" fill-opacity="0.6"/>
<circle cx="307.146" cy="244.047" r="1.1399" fill="white" fill-opacity="0.6"/>
<circle cx="358.527" cy="244.047" r="1.1399" fill="white" fill-opacity="0.6"/>
<circle cx="409.908" cy="244.047" r="1.1399" fill="white" fill-opacity="0.6"/>
<circle cx="461.289" cy="244.047" r="1.1399" fill="white" fill-opacity="0.6"/>
<circle cx="512.67" cy="244.047" r="1.1399" fill="white" fill-opacity="0.6"/>
<circle cx="564.05" cy="244.047" r="1.1399" fill="white" fill-opacity="0.6"/>
<circle cx="615.431" cy="244.047" r="1.1399" fill="white" fill-opacity="0.6"/>
<circle cx="666.812" cy="244.047" r="1.1399" fill="white" fill-opacity="0.6"/>
<circle cx="718.193" cy="244.047" r="1.1399" fill="white" fill-opacity="0.6"/>
<circle cx="769.574" cy="244.047" r="1.1399" fill="white" fill-opacity="0.6"/>
<circle cx="820.955" cy="244.047" r="1.1399" fill="white" fill-opacity="0.6"/>
<circle cx="872.336" cy="244.047" r="1.1399" fill="white" fill-opacity="0.6"/>
<circle cx="923.717" cy="244.047" r="1.1399" fill="white" fill-opacity="0.6"/>
<circle cx="975.098" cy="244.047" r="1.1399" fill="white" fill-opacity="0.6"/>
<circle cx="1026.48" cy="244.047" r="1.1399" fill="white" fill-opacity="0.6"/>
<circle cx="50.241" cy="292.683" r="1.1399" fill="white" fill-opacity="0.6"/>
<circle cx="101.622" cy="292.683" r="1.1399" fill="white" fill-opacity="0.6"/>
<circle cx="153.003" cy="292.683" r="1.1399" fill="white" fill-opacity="0.6"/>
<circle cx="204.384" cy="292.683" r="1.1399" fill="white" fill-opacity="0.6"/>
<circle cx="255.765" cy="292.683" r="1.1399" fill="white" fill-opacity="0.6"/>
<circle cx="307.146" cy="292.683" r="1.1399" fill="white" fill-opacity="0.6"/>
<circle cx="358.527" cy="292.683" r="1.1399" fill="white" fill-opacity="0.6"/>
<circle cx="409.908" cy="292.683" r="1.1399" fill="white" fill-opacity="0.6"/>
<circle cx="461.289" cy="292.683" r="1.1399" fill="white" fill-opacity="0.6"/>
<circle cx="512.67" cy="292.683" r="1.1399" fill="white" fill-opacity="0.6"/>
<circle cx="564.05" cy="292.683" r="1.1399" fill="white" fill-opacity="0.6"/>
<circle cx="615.431" cy="292.683" r="1.1399" fill="white" fill-opacity="0.6"/>
<circle cx="666.812" cy="292.683" r="1.1399" fill="white" fill-opacity="0.6"/>
<circle cx="718.193" cy="292.683" r="1.1399" fill="white" fill-opacity="0.6"/>
<circle cx="769.574" cy="292.683" r="1.1399" fill="white" fill-opacity="0.6"/>
<circle cx="820.955" cy="292.683" r="1.1399" fill="white" fill-opacity="0.6"/>
<circle cx="872.336" cy="292.683" r="1.1399" fill="white" fill-opacity="0.6"/>
<circle cx="923.717" cy="292.683" r="1.1399" fill="white" fill-opacity="0.6"/>
<g opacity="0.5">
<ellipse cx="975.317" cy="293.052" rx="1.53819" ry="1.5086" fill="white"/>
<ellipse cx="975.317" cy="341.035" rx="1.53819" ry="1.5086" fill="white"/>
<path d="M960.609 330.037H956.525V324.469H960.609V330.037Z" fill="white"/>
<path d="M953.44 318.492V314.94H945.863V303.612H941.779V330.037H945.863V318.492H953.44Z" fill="white"/>
</g>
<circle cx="1027.1" cy="292.683" r="1.1399" fill="white" fill-opacity="0.6"/>
<circle cx="50.241" cy="341.32" r="1.1399" fill="white" fill-opacity="0.6"/>
<circle cx="101.622" cy="341.32" r="1.1399" fill="white" fill-opacity="0.6"/>
<circle cx="153.003" cy="341.32" r="1.1399" fill="white" fill-opacity="0.6"/>
<circle cx="204.384" cy="341.32" r="1.1399" fill="white" fill-opacity="0.6"/>
<circle cx="255.765" cy="341.32" r="1.1399" fill="white" fill-opacity="0.6"/>
<circle cx="307.146" cy="341.32" r="1.1399" fill="white" fill-opacity="0.6"/>
<circle cx="358.527" cy="341.32" r="1.1399" fill="white" fill-opacity="0.6"/>
<circle cx="409.908" cy="341.32" r="1.1399" fill="white" fill-opacity="0.6"/>
<circle cx="461.289" cy="341.32" r="1.1399" fill="white" fill-opacity="0.6"/>
<circle cx="512.67" cy="341.32" r="1.1399" fill="white" fill-opacity="0.6"/>
<circle cx="564.05" cy="341.32" r="1.1399" fill="white" fill-opacity="0.6"/>
<circle cx="615.431" cy="341.32" r="1.1399" fill="white" fill-opacity="0.6"/>
<circle cx="666.812" cy="341.32" r="1.1399" fill="white" fill-opacity="0.6"/>
<circle cx="718.193" cy="341.32" r="1.1399" fill="white" fill-opacity="0.6"/>
<circle cx="769.574" cy="341.32" r="1.1399" fill="white" fill-opacity="0.6"/>
<circle cx="820.955" cy="341.32" r="1.1399" fill="white" fill-opacity="0.6"/>
<circle cx="872.336" cy="341.32" r="1.1399" fill="white" fill-opacity="0.6"/>
<circle cx="923.717" cy="341.32" r="1.1399" fill="white" fill-opacity="0.6"/>
<circle cx="975.098" cy="341.32" r="1.1399" fill="white" fill-opacity="0.6"/>
<circle cx="1026.48" cy="341.32" r="1.1399" fill="white" fill-opacity="0.6"/>
<circle cx="50.241" cy="487.32" r="1.1399" fill="white" fill-opacity="0.6"/>
<circle cx="101.622" cy="487.32" r="1.1399" fill="white" fill-opacity="0.6"/>
<circle cx="153.003" cy="487.32" r="1.1399" fill="white" fill-opacity="0.6"/>
<circle cx="204.384" cy="487.32" r="1.1399" fill="white" fill-opacity="0.6"/>
<circle cx="255.765" cy="487.32" r="1.1399" fill="white" fill-opacity="0.6"/>
<circle cx="307.146" cy="487.32" r="1.1399" fill="white" fill-opacity="0.6"/>
<circle cx="358.527" cy="487.32" r="1.1399" fill="white" fill-opacity="0.6"/>
<circle cx="409.908" cy="487.32" r="1.1399" fill="white" fill-opacity="0.6"/>
<circle cx="461.289" cy="487.32" r="1.1399" fill="white" fill-opacity="0.6"/>
<circle cx="512.67" cy="487.32" r="1.1399" fill="white" fill-opacity="0.6"/>
<circle cx="564.05" cy="487.32" r="1.1399" fill="white" fill-opacity="0.6"/>
<circle cx="615.431" cy="487.32" r="1.1399" fill="white" fill-opacity="0.6"/>
<circle cx="666.812" cy="487.32" r="1.1399" fill="white" fill-opacity="0.6"/>
<circle cx="718.193" cy="487.32" r="1.1399" fill="white" fill-opacity="0.6"/>
<circle cx="769.574" cy="487.32" r="1.1399" fill="white" fill-opacity="0.6"/>
<circle cx="820.955" cy="487.32" r="1.1399" fill="white" fill-opacity="0.6"/>
<circle cx="872.336" cy="487.32" r="1.1399" fill="white" fill-opacity="0.6"/>
<circle cx="923.717" cy="487.32" r="1.1399" fill="white" fill-opacity="0.6"/>
<circle cx="975.098" cy="487.32" r="1.1399" fill="white" fill-opacity="0.6"/>
<circle cx="1026.48" cy="487.32" r="1.1399" fill="white" fill-opacity="0.6"/>
<circle cx="50.241" cy="389.955" r="1.1399" fill="white" fill-opacity="0.6"/>
<circle cx="101.622" cy="389.955" r="1.1399" fill="white" fill-opacity="0.6"/>
<circle cx="153.003" cy="389.955" r="1.1399" fill="white" fill-opacity="0.6"/>
<g opacity="0.5">
<ellipse cx="203.636" cy="390.323" rx="1.5086" ry="1.5086" fill="white"/>
<ellipse cx="203.636" cy="438.306" rx="1.5086" ry="1.5086" fill="white"/>
<path opacity="0.6" d="M171.434 409.181C171.61 410.682 172.202 411.987 173.209 413.093C173.233 413.12 173.257 413.146 173.282 413.173L173.31 413.202C174.49 414.445 176.184 415.248 178.392 415.612L178.472 415.624C179.581 415.782 180.611 415.926 181.562 416.057L181.89 416.102C183.048 416.301 183.914 416.696 184.488 417.286L184.497 417.296C185.046 417.866 185.325 418.616 185.334 419.548C185.334 419.583 185.334 419.618 185.334 419.654C185.285 422.058 183.545 423.285 180.114 423.333L180.078 423.333L180.03 423.332C177.166 423.292 174.693 422.416 172.611 420.705L169.983 423.714C170.013 423.74 170.044 423.766 170.074 423.792C171.443 424.949 172.94 425.823 174.566 426.414C176.263 427.03 178.1 427.339 180.078 427.339L180.081 427.338L180.17 427.337C186.13 427.24 189.192 424.706 189.355 419.735L189.356 419.703L189.357 419.654C189.357 417.781 188.771 416.138 187.599 414.724C186.49 413.378 184.815 412.514 182.572 412.131C182.527 412.124 182.481 412.116 182.435 412.109C182.327 412.091 182.218 412.075 182.108 412.06C180.851 411.903 179.86 411.764 179.135 411.643C179.106 411.638 179.078 411.632 179.049 411.627C179.021 411.621 178.992 411.616 178.964 411.61C177.747 411.363 176.856 410.939 176.29 410.338L176.269 410.316L176.265 410.312C175.931 409.959 175.694 409.582 175.554 409.181H171.434Z" fill="white"/>
</g>
<circle cx="255.384" cy="389.955" r="1.1399" fill="white" fill-opacity="0.6"/>
<circle cx="306.765" cy="389.955" r="1.1399" fill="white" fill-opacity="0.6"/>
<circle cx="358.146" cy="389.955" r="1.1399" fill="white" fill-opacity="0.6"/>
<circle cx="409.527" cy="389.955" r="1.1399" fill="white" fill-opacity="0.6"/>
<circle cx="460.908" cy="389.955" r="1.1399" fill="white" fill-opacity="0.6"/>
<circle cx="512.289" cy="389.955" r="1.1399" fill="white" fill-opacity="0.6"/>
<circle cx="563.67" cy="389.955" r="1.1399" fill="white" fill-opacity="0.6"/>
<circle cx="615.05" cy="389.955" r="1.1399" fill="white" fill-opacity="0.6"/>
<circle cx="666.431" cy="389.955" r="1.1399" fill="white" fill-opacity="0.6"/>
<circle cx="717.812" cy="389.955" r="1.1399" fill="white" fill-opacity="0.6"/>
<circle cx="769.193" cy="389.955" r="1.1399" fill="white" fill-opacity="0.6"/>
<circle cx="820.574" cy="389.955" r="1.1399" fill="white" fill-opacity="0.6"/>
<circle cx="871.955" cy="389.955" r="1.1399" fill="white" fill-opacity="0.6"/>
<circle cx="923.336" cy="389.955" r="1.1399" fill="white" fill-opacity="0.6"/>
<circle cx="974.717" cy="389.955" r="1.1399" fill="white" fill-opacity="0.6"/>
<circle cx="1026.1" cy="389.955" r="1.1399" fill="white" fill-opacity="0.6"/>
<circle cx="50.241" cy="535.954" r="1.1399" fill="white" fill-opacity="0.6"/>
<circle cx="101.622" cy="535.954" r="1.1399" fill="white" fill-opacity="0.6"/>
<circle cx="153.003" cy="535.954" r="1.1399" fill="white" fill-opacity="0.6"/>
<g opacity="0.5">
<ellipse cx="203.636" cy="536.323" rx="1.5086" ry="1.5086" fill="white"/>
<ellipse cx="203.636" cy="584.306" rx="1.5086" ry="1.5086" fill="white"/>
<path opacity="0.6" d="M171.434 555.181C171.61 556.682 172.202 557.986 173.209 559.093C173.233 559.12 173.257 559.146 173.282 559.172L173.31 559.201C174.49 560.445 176.184 561.248 178.392 561.612L178.472 561.623C179.581 561.782 180.611 561.926 181.562 562.057L181.89 562.101C183.048 562.301 183.914 562.695 184.488 563.286L184.497 563.295C185.046 563.865 185.325 564.616 185.334 565.548C185.334 565.583 185.334 565.618 185.334 565.654C185.285 568.058 183.545 569.285 180.114 569.333L180.078 569.333L180.03 569.332C177.166 569.292 174.693 568.416 172.611 566.705L169.983 569.713C170.013 569.74 170.044 569.766 170.074 569.791C171.443 570.948 172.94 571.822 174.566 572.413C176.263 573.03 178.1 573.338 180.078 573.338L180.081 573.338L180.17 573.337C186.13 573.24 189.192 570.706 189.355 565.735L189.356 565.703L189.357 565.654C189.357 563.781 188.771 562.138 187.599 560.724C186.49 559.378 184.815 558.513 182.572 558.131C182.527 558.123 182.481 558.116 182.435 558.108C182.327 558.091 182.218 558.075 182.108 558.06C180.851 557.903 179.86 557.764 179.135 557.643C179.106 557.638 179.078 557.632 179.049 557.627C179.021 557.621 178.992 557.615 178.964 557.61C177.747 557.362 176.856 556.939 176.29 556.338L176.269 556.316L176.265 556.312C175.931 555.959 175.694 555.582 175.554 555.181H171.434Z" fill="white"/>
</g>
<circle cx="255.384" cy="535.954" r="1.1399" fill="white" fill-opacity="0.6"/>
<circle cx="306.765" cy="535.954" r="1.1399" fill="white" fill-opacity="0.6"/>
<circle cx="358.146" cy="535.954" r="1.1399" fill="white" fill-opacity="0.6"/>
<circle cx="409.527" cy="535.954" r="1.1399" fill="white" fill-opacity="0.6"/>
<circle cx="460.908" cy="535.954" r="1.1399" fill="white" fill-opacity="0.6"/>
<circle cx="512.289" cy="535.954" r="1.1399" fill="white" fill-opacity="0.6"/>
<circle cx="563.67" cy="535.954" r="1.1399" fill="white" fill-opacity="0.6"/>
<circle cx="615.05" cy="535.954" r="1.1399" fill="white" fill-opacity="0.6"/>
<circle cx="666.431" cy="535.954" r="1.1399" fill="white" fill-opacity="0.6"/>
<circle cx="717.812" cy="535.954" r="1.1399" fill="white" fill-opacity="0.6"/>
<circle cx="769.193" cy="535.954" r="1.1399" fill="white" fill-opacity="0.6"/>
<circle cx="820.574" cy="535.954" r="1.1399" fill="white" fill-opacity="0.6"/>
<circle cx="871.955" cy="535.954" r="1.1399" fill="white" fill-opacity="0.6"/>
<circle cx="923.336" cy="535.954" r="1.1399" fill="white" fill-opacity="0.6"/>
<circle cx="974.717" cy="535.954" r="1.1399" fill="white" fill-opacity="0.6"/>
<circle cx="1026.1" cy="535.954" r="1.1399" fill="white" fill-opacity="0.6"/>
<circle cx="50.241" cy="438.591" r="1.1399" fill="white" fill-opacity="0.6"/>
<circle cx="101.622" cy="438.591" r="1.1399" fill="white" fill-opacity="0.6"/>
<circle cx="153.003" cy="438.591" r="1.1399" fill="white" fill-opacity="0.6"/>
<circle cx="204.384" cy="438.591" r="1.1399" fill="white" fill-opacity="0.6"/>
<circle cx="255.765" cy="438.591" r="1.1399" fill="white" fill-opacity="0.6"/>
<circle cx="307.146" cy="438.591" r="1.1399" fill="white" fill-opacity="0.6"/>
<circle cx="358.527" cy="438.591" r="1.1399" fill="white" fill-opacity="0.6"/>
<circle cx="409.908" cy="438.591" r="1.1399" fill="white" fill-opacity="0.6"/>
<circle cx="461.289" cy="438.591" r="1.1399" fill="white" fill-opacity="0.6"/>
<circle cx="512.67" cy="438.591" r="1.1399" fill="white" fill-opacity="0.6"/>
<circle cx="564.05" cy="438.591" r="1.1399" fill="white" fill-opacity="0.6"/>
<circle cx="615.431" cy="438.591" r="1.1399" fill="white" fill-opacity="0.6"/>
<circle cx="666.812" cy="438.591" r="1.1399" fill="white" fill-opacity="0.6"/>
<circle cx="718.193" cy="438.591" r="1.1399" fill="white" fill-opacity="0.6"/>
<circle cx="769.574" cy="438.591" r="1.1399" fill="white" fill-opacity="0.6"/>
<circle cx="820.955" cy="438.591" r="1.1399" fill="white" fill-opacity="0.6"/>
<circle cx="872.336" cy="438.591" r="1.1399" fill="white" fill-opacity="0.6"/>
<circle cx="923.717" cy="438.591" r="1.1399" fill="white" fill-opacity="0.6"/>
<circle cx="975.098" cy="438.591" r="1.1399" fill="white" fill-opacity="0.6"/>
<circle cx="1026.48" cy="438.591" r="1.1399" fill="white" fill-opacity="0.6"/>
<circle cx="50.241" cy="584.591" r="1.1399" fill="white" fill-opacity="0.6"/>
<circle cx="101.622" cy="584.591" r="1.1399" fill="white" fill-opacity="0.6"/>
<circle cx="153.003" cy="584.591" r="1.1399" fill="white" fill-opacity="0.6"/>
<circle cx="204.384" cy="584.591" r="1.1399" fill="white" fill-opacity="0.6"/>
<circle cx="255.765" cy="584.591" r="1.1399" fill="white" fill-opacity="0.6"/>
<circle cx="307.146" cy="584.591" r="1.1399" fill="white" fill-opacity="0.6"/>
<circle cx="358.527" cy="584.591" r="1.1399" fill="white" fill-opacity="0.6"/>
<circle cx="409.908" cy="584.591" r="1.1399" fill="white" fill-opacity="0.6"/>
<circle cx="461.289" cy="584.591" r="1.1399" fill="white" fill-opacity="0.6"/>
<circle cx="512.67" cy="584.591" r="1.1399" fill="white" fill-opacity="0.6"/>
<circle cx="564.05" cy="584.591" r="1.1399" fill="white" fill-opacity="0.6"/>
<circle cx="615.431" cy="584.591" r="1.1399" fill="white" fill-opacity="0.6"/>
<circle cx="666.812" cy="584.591" r="1.1399" fill="white" fill-opacity="0.6"/>
<circle cx="718.193" cy="584.591" r="1.1399" fill="white" fill-opacity="0.6"/>
<circle cx="769.574" cy="584.591" r="1.1399" fill="white" fill-opacity="0.6"/>
<circle cx="820.955" cy="584.591" r="1.1399" fill="white" fill-opacity="0.6"/>
<circle cx="872.336" cy="584.591" r="1.1399" fill="white" fill-opacity="0.6"/>
<circle cx="923.717" cy="584.591" r="1.1399" fill="white" fill-opacity="0.6"/>
<circle cx="975.098" cy="584.591" r="1.1399" fill="white" fill-opacity="0.6"/>
<circle cx="1026.48" cy="584.591" r="1.1399" fill="white" fill-opacity="0.6"/>
</svg>
