<svg width="527" height="527" viewBox="0 0 527 527" fill="none" xmlns="http://www.w3.org/2000/svg">
<path d="M434.214 335.676C453.489 290.267 453.936 239.062 435.456 193.323L394.45 209.891C408.535 244.754 408.194 283.784 393.503 318.395L434.214 335.676Z" fill="url(#paint0_linear)" fill-opacity="0.3"/>
<path d="M393.712 318.484C408.427 283.817 408.768 244.724 394.66 209.806" stroke="#ADFFF7" stroke-width="2"/>
<path d="M435.134 336.067C454.513 290.414 454.962 238.933 436.383 192.949" stroke="#ADFFF7" stroke-width="2"/>
<path d="M422.861 262.975C422.861 265.262 424.119 266.897 425.859 266.892C427.126 266.897 428.031 266.092 428.22 264.595H428.3C428.504 265.734 429.309 266.519 430.452 266.514C432.058 266.519 433.321 265.112 433.321 263.004C433.321 260.916 432.098 259.345 430.338 259.315V261.379C431.114 261.404 431.616 262.114 431.616 262.994C431.616 263.864 431.089 264.446 430.323 264.441C429.523 264.446 428.981 263.765 428.981 262.786V261.836H427.4V262.786C427.4 263.939 426.823 264.66 426.003 264.655C425.193 264.66 424.636 263.964 424.636 262.98C424.636 262.03 425.133 261.319 425.879 261.279V259.112C424.099 259.146 422.861 260.737 422.861 262.975Z" fill="white"/>
<defs>
<linearGradient id="paint0_linear" x1="449" y1="263" x2="403.5" y2="263" gradientUnits="userSpaceOnUse">
<stop stop-color="#00E0CA" stop-opacity="0.6"/>
<stop offset="1" stop-color="#00FFE6"/>
</linearGradient>
</defs>
</svg>
