<svg width="528" height="528" viewBox="0 0 528 528" fill="none" xmlns="http://www.w3.org/2000/svg">
<path d="M194.323 91.5438C148.585 110.023 112.061 145.915 92.7862 191.324L133.498 208.605C148.189 173.993 176.028 146.636 210.891 132.551L194.323 91.5438Z" fill="url(#paint0_linear)" fill-opacity="0.3"/>
<path d="M210.806 132.34C175.887 146.448 148.004 173.849 133.288 208.516" stroke="#ADFFF7" stroke-width="2"/>
<path d="M193.949 90.6166C147.965 109.195 111.244 145.28 91.8657 190.933" stroke="#ADFFF7" stroke-width="2"/>
<path d="M150.958 150.964C152.582 149.34 152.881 147.305 151.718 146.134C150.814 145.238 149.387 145.196 148.378 145.916L148.329 145.867C148.926 144.96 148.814 143.772 148.026 142.977C146.909 141.866 145.017 142.113 143.562 143.568C142.103 145.027 141.857 146.918 142.975 148.029C143.759 148.82 144.943 148.943 145.864 148.331L145.914 148.381C145.179 149.404 145.228 150.824 146.132 151.72C147.295 152.891 149.334 152.589 150.958 150.964ZM149.84 149.847C149.116 150.571 148.202 150.627 147.594 150.019C146.972 149.397 147.032 148.437 147.731 147.737C148.427 147.041 149.39 146.978 150.013 147.6C150.624 148.212 150.561 149.126 149.84 149.847ZM146.624 146.63C146.016 147.238 145.186 147.273 144.616 146.704C144.054 146.141 144.093 145.329 144.708 144.714C145.32 144.102 146.139 144.064 146.698 144.623C147.267 145.192 147.228 146.025 146.624 146.63Z" fill="white"/>
<defs>
<linearGradient id="paint0_linear" x1="132.478" y1="132.478" x2="164.652" y2="164.652" gradientUnits="userSpaceOnUse">
<stop stop-color="#00E0CA" stop-opacity="0.6"/>
<stop offset="1" stop-color="#00FFE6"/>
</linearGradient>
</defs>
</svg>
