<svg width="184" height="72" viewBox="0 0 184 72" fill="none" xmlns="http://www.w3.org/2000/svg">
<path d="M51.3208 22.3169C52.5159 22.3169 53.4848 21.3505 53.4848 20.1584C53.4848 18.9664 52.5159 18 51.3208 18C50.1256 18 49.1567 18.9664 49.1567 20.1584C49.1567 21.3505 50.1256 22.3169 51.3208 22.3169Z" fill="#F6F8FC"/>
<path d="M53.7548 52.8052C54.95 52.8052 55.9189 51.8388 55.9189 50.6467C55.9189 49.4546 54.95 48.4883 53.7548 48.4883C52.5597 48.4883 51.5908 49.4546 51.5908 50.6467C51.5908 51.8388 52.5597 52.8052 53.7548 52.8052Z" fill="#F6F8FC"/>
<path d="M51.9388 27.7129C52.9419 27.7129 53.755 26.9019 53.755 25.9014C53.755 24.9009 52.9419 24.0898 51.9388 24.0898C50.9357 24.0898 50.1226 24.9009 50.1226 25.9014C50.1226 26.9019 50.9357 27.7129 51.9388 27.7129Z" fill="#F6F8FC"/>
<path d="M56.7698 28.4068C57.7729 28.4068 58.5861 27.5957 58.5861 26.5952C58.5861 25.5948 57.7729 24.7837 56.7698 24.7837C55.7668 24.7837 54.9536 25.5948 54.9536 26.5952C54.9536 27.5957 55.7668 28.4068 56.7698 28.4068Z" fill="#F6F8FC"/>
<path d="M51.3206 32.2998C52.1743 32.2998 52.8664 31.6095 52.8664 30.7581C52.8664 29.9066 52.1743 29.2163 51.3206 29.2163C50.4669 29.2163 49.7749 29.9066 49.7749 30.7581C49.7749 31.6095 50.4669 32.2998 51.3206 32.2998Z" fill="#F6F8FC"/>
<path d="M56.1507 32.9551C57.0044 32.9551 57.6964 32.2648 57.6964 31.4133C57.6964 30.5618 57.0044 29.8716 56.1507 29.8716C55.297 29.8716 54.605 30.5618 54.605 31.4133C54.605 32.2648 55.297 32.9551 56.1507 32.9551Z" fill="#F6F8FC"/>
<path d="M60.0155 34.4585C60.8691 34.4585 61.5612 33.7682 61.5612 32.9167C61.5612 32.0653 60.8691 31.375 60.0155 31.375C59.1618 31.375 58.4697 32.0653 58.4697 32.9167C58.4697 33.7682 59.1618 34.4585 60.0155 34.4585Z" fill="#F6F8FC"/>
<path d="M54.7212 36.6551C55.4681 36.6551 56.0737 36.0511 56.0737 35.3061C56.0737 34.561 55.4681 33.957 54.7212 33.957C53.9742 33.957 53.3687 34.561 53.3687 35.3061C53.3687 36.0511 53.9742 36.6551 54.7212 36.6551Z" fill="#F6F8FC"/>
<path d="M49.8911 35.9998C50.6381 35.9998 51.2436 35.3958 51.2436 34.6508C51.2436 33.9057 50.6381 33.3018 49.8911 33.3018C49.1441 33.3018 48.5386 33.9057 48.5386 34.6508C48.5386 35.3958 49.1441 35.9998 49.8911 35.9998Z" fill="#F6F8FC"/>
<path d="M58.624 38.1585C59.371 38.1585 59.9765 37.5545 59.9765 36.8095C59.9765 36.0644 59.371 35.4604 58.624 35.4604C57.877 35.4604 57.2715 36.0644 57.2715 36.8095C57.2715 37.5545 57.877 38.1585 58.624 38.1585Z" fill="#F6F8FC"/>
<path d="M52.7897 39.4689C53.4299 39.4689 53.949 38.9512 53.949 38.3126C53.949 37.6739 53.4299 37.1562 52.7897 37.1562C52.1494 37.1562 51.6304 37.6739 51.6304 38.3126C51.6304 38.9512 52.1494 39.4689 52.7897 39.4689Z" fill="#F6F8FC"/>
<path d="M56.6925 40.9337C57.3328 40.9337 57.8518 40.416 57.8518 39.7774C57.8518 39.1388 57.3328 38.6211 56.6925 38.6211C56.0522 38.6211 55.5332 39.1388 55.5332 39.7774C55.5332 40.416 56.0522 40.9337 56.6925 40.9337Z" fill="#F6F8FC"/>
<path d="M47.9972 38.7745C48.6375 38.7745 49.1565 38.2568 49.1565 37.6182C49.1565 36.9796 48.6375 36.4619 47.9972 36.4619C47.3569 36.4619 46.8379 36.9796 46.8379 37.6182C46.8379 38.2568 47.3569 38.7745 47.9972 38.7745Z" fill="#F6F8FC"/>
<path d="M50.6638 41.3579C51.1974 41.3579 51.6299 40.9264 51.6299 40.3943C51.6299 39.8621 51.1974 39.4307 50.6638 39.4307C50.1303 39.4307 49.6978 39.8621 49.6978 40.3943C49.6978 40.9264 50.1303 41.3579 50.6638 41.3579Z" fill="#F6F8FC"/>
<path d="M52.3252 44.0172C52.7948 44.0172 53.1754 43.6376 53.1754 43.1693C53.1754 42.7009 52.7948 42.3213 52.3252 42.3213C51.8557 42.3213 51.4751 42.7009 51.4751 43.1693C51.4751 43.6376 51.8557 44.0172 52.3252 44.0172Z" fill="#F6F8FC"/>
<path d="M50.2771 44.557C50.6613 44.557 50.9727 44.2464 50.9727 43.8632C50.9727 43.4801 50.6613 43.1694 50.2771 43.1694C49.893 43.1694 49.5815 43.4801 49.5815 43.8632C49.5815 44.2464 49.893 44.557 50.2771 44.557Z" fill="#F6F8FC"/>
<path d="M48.461 42.5524C48.9305 42.5524 49.3111 42.1727 49.3111 41.7044C49.3111 41.2361 48.9305 40.8564 48.461 40.8564C47.9915 40.8564 47.6108 41.2361 47.6108 41.7044C47.6108 42.1727 47.9915 42.5524 48.461 42.5524Z" fill="#F6F8FC"/>
<path d="M45.8338 40.7026C46.3673 40.7026 46.7998 40.2712 46.7998 39.739C46.7998 39.2068 46.3673 38.7754 45.8338 38.7754C45.3002 38.7754 44.8677 39.2068 44.8677 39.739C44.8677 40.2712 45.3002 40.7026 45.8338 40.7026Z" fill="#F6F8FC"/>
<path d="M45.7947 33.4555C46.3282 33.4555 46.7608 33.0241 46.7608 32.4919C46.7608 31.9597 46.3282 31.5283 45.7947 31.5283C45.2611 31.5283 44.8286 31.9597 44.8286 32.4919C44.8286 33.0241 45.2611 33.4555 45.7947 33.4555Z" fill="#F6F8FC"/>
<path d="M46.2198 30.0641C46.6893 30.0641 47.0699 29.6844 47.0699 29.2161C47.0699 28.7478 46.6893 28.3682 46.2198 28.3682C45.7503 28.3682 45.3696 28.7478 45.3696 29.2161C45.3696 29.6844 45.7503 30.0641 46.2198 30.0641Z" fill="#F6F8FC"/>
<path d="M47.1472 27.2889C47.5314 27.2889 47.8428 26.9783 47.8428 26.5952C47.8428 26.212 47.5314 25.9014 47.1472 25.9014C46.7631 25.9014 46.4517 26.212 46.4517 26.5952C46.4517 26.9783 46.7631 27.2889 47.1472 27.2889Z" fill="#F6F8FC"/>
<path d="M45.524 25.9786C45.9935 25.9786 46.3741 25.599 46.3741 25.1307C46.3741 24.6624 45.9935 24.2827 45.524 24.2827C45.0545 24.2827 44.6738 24.6624 44.6738 25.1307C44.6738 25.599 45.0545 25.9786 45.524 25.9786Z" fill="#F6F8FC"/>
<path d="M54.5281 42.8217C55.0616 42.8217 55.4942 42.3903 55.4942 41.8581C55.4942 41.3259 55.0616 40.8945 54.5281 40.8945C53.9945 40.8945 53.562 41.3259 53.562 41.8581C53.562 42.3903 53.9945 42.8217 54.5281 42.8217Z" fill="#F6F8FC"/>
<path d="M43.3216 24.8608C43.8551 24.8608 44.2876 24.4294 44.2876 23.8972C44.2876 23.365 43.8551 22.9336 43.3216 22.9336C42.788 22.9336 42.3555 23.365 42.3555 23.8972C42.3555 24.4294 42.788 24.8608 43.3216 24.8608Z" fill="#F6F8FC"/>
<path d="M43.9783 28.9467C44.5118 28.9467 44.9444 28.5153 44.9444 27.9831C44.9444 27.4509 44.5118 27.0195 43.9783 27.0195C43.4447 27.0195 43.0122 27.4509 43.0122 27.9831C43.0122 28.5153 43.4447 28.9467 43.9783 28.9467Z" fill="#F6F8FC"/>
<path d="M42.8966 32.8395C43.5369 32.8395 44.0559 32.3218 44.0559 31.6832C44.0559 31.0446 43.5369 30.5269 42.8966 30.5269C42.2563 30.5269 41.7373 31.0446 41.7373 31.6832C41.7373 32.3218 42.2563 32.8395 42.8966 32.8395Z" fill="#F6F8FC"/>
<path d="M39.3799 32.8392C40.1268 32.8392 40.7324 32.2352 40.7324 31.4901C40.7324 30.7451 40.1268 30.1411 39.3799 30.1411C38.6329 30.1411 38.0273 30.7451 38.0273 31.4901C38.0273 32.2352 38.6329 32.8392 39.3799 32.8392Z" fill="#F6F8FC"/>
<path d="M35.284 33.7646C36.1377 33.7646 36.8297 33.0744 36.8297 32.2229C36.8297 31.3714 36.1377 30.6812 35.284 30.6812C34.4303 30.6812 33.7383 31.3714 33.7383 32.2229C33.7383 33.0744 34.4303 33.7646 35.284 33.7646Z" fill="#F6F8FC"/>
<path d="M30.8016 35.9615C31.8047 35.9615 32.6178 35.1504 32.6178 34.1499C32.6178 33.1494 31.8047 32.3384 30.8016 32.3384C29.7985 32.3384 28.9854 33.1494 28.9854 34.1499C28.9854 35.1504 29.7985 35.9615 30.8016 35.9615Z" fill="#F6F8FC"/>
<path d="M26.164 39.6616C27.3592 39.6616 28.328 38.6953 28.328 37.5032C28.328 36.3111 27.3592 35.3447 26.164 35.3447C24.9689 35.3447 24 36.3111 24 37.5032C24 38.6953 24.9689 39.6616 26.164 39.6616Z" fill="#F6F8FC"/>
<path d="M28.9852 31.4517C29.9883 31.4517 30.8014 30.6407 30.8014 29.6402C30.8014 28.6397 29.9883 27.8286 28.9852 27.8286C27.9821 27.8286 27.1689 28.6397 27.1689 29.6402C27.1689 30.6407 27.9821 31.4517 28.9852 31.4517Z" fill="#F6F8FC"/>
<path d="M33.4676 29.2549C34.3213 29.2549 35.0133 28.5646 35.0133 27.7131C35.0133 26.8617 34.3213 26.1714 33.4676 26.1714C32.6139 26.1714 31.9219 26.8617 31.9219 27.7131C31.9219 28.5646 32.6139 29.2549 33.4676 29.2549Z" fill="#F6F8FC"/>
<path d="M32.8104 25.1689C33.6641 25.1689 34.3561 24.4787 34.3561 23.6272C34.3561 22.7757 33.6641 22.0854 32.8104 22.0854C31.9567 22.0854 31.2646 22.7757 31.2646 23.6272C31.2646 24.4787 31.9567 25.1689 32.8104 25.1689Z" fill="#F6F8FC"/>
<path d="M36.9067 24.244C37.6537 24.244 38.2592 23.64 38.2592 22.8949C38.2592 22.1499 37.6537 21.5459 36.9067 21.5459C36.1597 21.5459 35.5542 22.1499 35.5542 22.8949C35.5542 23.64 36.1597 24.244 36.9067 24.244Z" fill="#F6F8FC"/>
<path d="M40.423 24.2443C41.0632 24.2443 41.5823 23.7266 41.5823 23.088C41.5823 22.4493 41.0632 21.9316 40.423 21.9316C39.7827 21.9316 39.2637 22.4493 39.2637 23.088C39.2637 23.7266 39.7827 24.2443 40.423 24.2443Z" fill="#F6F8FC"/>
<path d="M41.0802 28.3292C41.7205 28.3292 42.2395 27.8115 42.2395 27.1729C42.2395 26.5343 41.7205 26.0166 41.0802 26.0166C40.4399 26.0166 39.9209 26.5343 39.9209 27.1729C39.9209 27.8115 40.4399 28.3292 41.0802 28.3292Z" fill="#F6F8FC"/>
<path d="M37.5639 28.3685C38.3109 28.3685 38.9165 27.7645 38.9165 27.0194C38.9165 26.2744 38.3109 25.6704 37.5639 25.6704C36.817 25.6704 36.2114 26.2744 36.2114 27.0194C36.2114 27.7645 36.817 28.3685 37.5639 28.3685Z" fill="#F6F8FC"/>
<path d="M33.7381 38.621C34.1222 38.621 34.4336 38.3104 34.4336 37.9272C34.4336 37.544 34.1222 37.2334 33.7381 37.2334C33.3539 37.2334 33.0425 37.544 33.0425 37.9272C33.0425 38.3104 33.3539 38.621 33.7381 38.621Z" fill="#F6F8FC"/>
<path d="M36.5206 38.274C36.9901 38.274 37.3707 37.8944 37.3707 37.4261C37.3707 36.9578 36.9901 36.5781 36.5206 36.5781C36.051 36.5781 35.6704 36.9578 35.6704 37.4261C35.6704 37.8944 36.051 38.274 36.5206 38.274Z" fill="#F6F8FC"/>
<path d="M39.573 37.1181C40.1066 37.1181 40.5391 36.6867 40.5391 36.1545C40.5391 35.6223 40.1066 35.1909 39.573 35.1909C39.0395 35.1909 38.6069 35.6223 38.6069 36.1545C38.6069 36.6867 39.0395 37.1181 39.573 37.1181Z" fill="#F6F8FC"/>
<path d="M40.3072 40.2013C40.9475 40.2013 41.4665 39.6836 41.4665 39.045C41.4665 38.4064 40.9475 37.8887 40.3072 37.8887C39.667 37.8887 39.1479 38.4064 39.1479 39.045C39.1479 39.6836 39.667 40.2013 40.3072 40.2013Z" fill="#F6F8FC"/>
<path d="M36.5979 40.933C37.1315 40.933 37.564 40.5016 37.564 39.9695C37.564 39.4373 37.1315 39.0059 36.5979 39.0059C36.0644 39.0059 35.6318 39.4373 35.6318 39.9695C35.6318 40.5016 36.0644 40.933 36.5979 40.933Z" fill="#F6F8FC"/>
<path d="M33.313 40.8947C33.7826 40.8947 34.1632 40.515 34.1632 40.0467C34.1632 39.5784 33.7826 39.1987 33.313 39.1987C32.8435 39.1987 32.4629 39.5784 32.4629 40.0467C32.4629 40.515 32.8435 40.8947 33.313 40.8947Z" fill="#F6F8FC"/>
<path d="M33.3513 43.5546C33.8849 43.5546 34.3174 43.1232 34.3174 42.591C34.3174 42.0589 33.8849 41.6274 33.3513 41.6274C32.8178 41.6274 32.3853 42.0589 32.3853 42.591C32.3853 43.1232 32.8178 43.5546 33.3513 43.5546Z" fill="#F6F8FC"/>
<path d="M37.2931 44.0553C37.9334 44.0553 38.4524 43.5376 38.4524 42.899C38.4524 42.2604 37.9334 41.7427 37.2931 41.7427C36.6528 41.7427 36.1338 42.2604 36.1338 42.899C36.1338 43.5376 36.6528 44.0553 37.2931 44.0553Z" fill="#F6F8FC"/>
<path d="M41.8921 43.5545C42.639 43.5545 43.2446 42.9505 43.2446 42.2055C43.2446 41.4604 42.639 40.8564 41.8921 40.8564C41.1451 40.8564 40.5396 41.4604 40.5396 42.2055C40.5396 42.9505 41.1451 43.5545 41.8921 43.5545Z" fill="#F6F8FC"/>
<path d="M44.5965 46.9077C45.4502 46.9077 46.1422 46.2175 46.1422 45.366C46.1422 44.5145 45.4502 43.8242 44.5965 43.8242C43.7428 43.8242 43.0508 44.5145 43.0508 45.366C43.0508 46.2175 43.7428 46.9077 44.5965 46.9077Z" fill="#F6F8FC"/>
<path d="M38.9165 47.3704C39.6635 47.3704 40.269 46.7664 40.269 46.0214C40.269 45.2763 39.6635 44.6724 38.9165 44.6724C38.1695 44.6724 37.564 45.2763 37.564 46.0214C37.564 46.7664 38.1695 47.3704 38.9165 47.3704Z" fill="#F6F8FC"/>
<path d="M35.709 49.991C36.4559 49.991 37.0615 49.387 37.0615 48.642C37.0615 47.8969 36.4559 47.293 35.709 47.293C34.962 47.293 34.3564 47.8969 34.3564 48.642C34.3564 49.387 34.962 49.991 35.709 49.991Z" fill="#F6F8FC"/>
<path d="M38.3748 53.3833C39.2285 53.3833 39.9206 52.693 39.9206 51.8416C39.9206 50.9901 39.2285 50.2998 38.3748 50.2998C37.5211 50.2998 36.8291 50.9901 36.8291 51.8416C36.8291 52.693 37.5211 53.3833 38.3748 53.3833Z" fill="#F6F8FC"/>
<path d="M45.4857 54.0001C46.4887 54.0001 47.3019 53.189 47.3019 52.1885C47.3019 51.188 46.4887 50.377 45.4857 50.377C44.4826 50.377 43.6694 51.188 43.6694 52.1885C43.6694 53.189 44.4826 54.0001 45.4857 54.0001Z" fill="#F6F8FC"/>
<path d="M41.5828 50.7617C42.4365 50.7617 43.1286 50.0714 43.1286 49.22C43.1286 48.3685 42.4365 47.6782 41.5828 47.6782C40.7292 47.6782 40.0371 48.3685 40.0371 49.22C40.0371 50.0714 40.7292 50.7617 41.5828 50.7617Z" fill="#F6F8FC"/>
<path d="M48.4613 50.1456C49.4643 50.1456 50.2775 49.3345 50.2775 48.334C50.2775 47.3335 49.4643 46.5225 48.4613 46.5225C47.4582 46.5225 46.645 47.3335 46.645 48.334C46.645 49.3345 47.4582 50.1456 48.4613 50.1456Z" fill="#F6F8FC"/>
<path d="M34.0856 46.6769C34.7258 46.6769 35.2449 46.1592 35.2449 45.5206C35.2449 44.882 34.7258 44.3643 34.0856 44.3643C33.4453 44.3643 32.9263 44.882 32.9263 45.5206C32.9263 46.1592 33.4453 46.6769 34.0856 46.6769Z" fill="#F6F8FC"/>
<path d="M79.6532 24.4263H77V47.69H79.6532V24.4263Z" fill="#F6F8FC"/>
<path d="M88.1938 36.0393C88.1938 29.5207 93.6567 24 100.081 24C106.542 24 111.927 29.4795 111.927 36.0393C111.927 42.5991 106.505 48.0786 100.081 48.0786C93.6939 48.116 88.1938 42.5991 88.1938 36.0393ZM109.274 36.0393C109.274 30.87 105.082 26.4707 100.081 26.4707C95.0801 26.4707 90.8507 30.87 90.8507 36.0393C90.8507 41.2497 95.0801 45.6453 100.081 45.6453C105.082 45.6453 109.274 41.2497 109.274 36.0393Z" fill="#F6F8FC"/>
<path d="M125.543 26.9343H117.736V24.4263H135.969V26.9343H128.159V47.69H125.506L125.543 26.9343Z" fill="#F6F8FC"/>
<path d="M149.891 27.6669L141.082 47.69H138.198L147.853 25.7382C148.199 24.9271 149.008 24.4263 149.854 24.4263C150.737 24.4263 151.508 24.9271 151.855 25.7382L161.51 47.69H158.626L149.891 27.6669Z" fill="#F6F8FC"/>
</svg>
