<svg width="23" height="24" viewBox="0 0 23 24" fill="none" xmlns="http://www.w3.org/2000/svg">
<path d="M18.2347 23.9897C18.2347 23.8592 18.2347 23.7447 18.2347 23.6303C18.2347 21.0364 18.2464 18.4426 18.2265 15.8487C18.2214 15.1934 18.1662 14.5285 18.0445 13.8861C17.8063 12.6247 17.1003 12.0325 15.8694 11.9748C15.0751 11.9373 14.3349 12.0994 13.7618 12.7247C13.2762 13.2548 13.0646 13.9251 12.9925 14.6376C12.9378 15.1768 12.9112 15.7219 12.9092 16.2643C12.9005 18.7336 12.9056 21.2022 12.9056 23.6715C12.9056 23.7758 12.9056 23.8801 12.9056 23.9999C11.3112 23.9999 9.74805 23.9999 8.16187 23.9999C8.16187 18.663 8.16187 13.3319 8.16187 7.98422C9.67444 7.98422 11.1768 7.98422 12.7175 7.98422C12.7175 8.70316 12.7175 9.40712 12.7175 10.1111C12.7359 10.1159 12.7548 10.1202 12.7732 10.125C12.8126 10.0736 12.8565 10.0255 12.8898 9.9704C13.7122 8.60366 14.9268 7.87509 16.4241 7.64401C17.5001 7.47764 18.5659 7.5766 19.6067 7.91735C21.1034 8.40681 22.0164 9.49485 22.4984 11.0199C22.8501 12.132 22.9758 13.2848 22.9835 14.4461C23.004 17.5744 22.9973 20.7032 23.0009 23.8319C23.0009 23.8758 22.9948 23.9197 22.9891 23.9897C21.4147 23.9897 19.8464 23.9897 18.2347 23.9897Z" fill="white"/>
<path d="M0.403564 7.98636C1.99078 7.98636 3.55498 7.98636 5.133 7.98636C5.133 13.3303 5.133 18.6555 5.133 23.9983C3.55396 23.9983 1.99026 23.9983 0.403564 23.9983C0.403564 18.6672 0.403564 13.3351 0.403564 7.98636Z" fill="white"/>
<path d="M5.51563 2.88114C5.5187 4.48378 4.2888 5.77295 2.75782 5.77241C1.22991 5.77241 -0.0040793 4.47682 1.0135e-05 2.87793C0.00409957 1.28759 1.22735 0.00644307 2.7476 2.3957e-05C4.27858 -0.00639516 5.51308 1.27796 5.51563 2.88114Z" fill="white"/>
</svg>
