<svg width="213" height="207" viewBox="0 0 213 207" fill="none" xmlns="http://www.w3.org/2000/svg">
<g filter="url(#filter0_d)">
<path d="M152.961 20.6544C152.961 26.2403 148.455 30.7642 142.901 30.7642C137.347 30.7642 132.84 26.2403 132.84 20.6544C132.84 15.0685 137.347 10.5445 142.901 10.5445C148.455 10.5445 152.961 15.0685 152.961 20.6544Z" fill="#D0DAEE" stroke="url(#paint0_linear)" stroke-width="1.0891"/>
<path d="M164.893 171.166C164.893 176.752 160.386 181.276 154.832 181.276C149.278 181.276 144.772 176.752 144.772 171.166C144.772 165.58 149.278 161.056 154.832 161.056C160.386 161.056 164.893 165.58 164.893 171.166Z" fill="#D0DAEE" stroke="url(#paint1_linear)" stroke-width="1.0891"/>
<path d="M154.291 49.0083C154.291 53.6486 150.548 57.4059 145.935 57.4059C141.323 57.4059 137.579 53.6486 137.579 49.0083C137.579 44.3681 141.323 40.6108 145.935 40.6108C150.548 40.6108 154.291 44.3681 154.291 49.0083Z" fill="#D0DAEE" stroke="url(#paint2_linear)" stroke-width="1.0891"/>
<path d="M177.966 52.429C177.966 57.0693 174.223 60.8266 169.61 60.8266C164.998 60.8266 161.254 57.0693 161.254 52.429C161.254 47.7888 164.998 44.0315 169.61 44.0315C174.223 44.0315 177.966 47.7888 177.966 52.429Z" fill="#D0DAEE" stroke="url(#paint3_linear)" stroke-width="1.0891"/>
<path d="M149.94 72.9801C149.94 76.8848 146.79 80.0459 142.909 80.0459C139.029 80.0459 135.879 76.8848 135.879 72.9801C135.879 69.0754 139.029 65.9144 142.909 65.9144C146.79 65.9144 149.94 69.0754 149.94 72.9801Z" fill="#D0DAEE" stroke="url(#paint4_linear)" stroke-width="1.0891"/>
<path d="M173.609 76.2143C173.609 80.119 170.459 83.2801 166.579 83.2801C162.698 83.2801 159.548 80.119 159.548 76.2143C159.548 72.3096 162.698 69.1486 166.579 69.1486C170.459 69.1486 173.609 72.3096 173.609 76.2143Z" fill="#D0DAEE" stroke="url(#paint5_linear)" stroke-width="1.0891"/>
<path d="M192.548 83.6411C192.548 87.5458 189.398 90.7068 185.518 90.7068C181.638 90.7068 178.488 87.5458 178.488 83.6411C178.488 79.7364 181.638 76.5753 185.518 76.5753C189.398 76.5753 192.548 79.7364 192.548 83.6411Z" fill="#D0DAEE" stroke="url(#paint6_linear)" stroke-width="1.0891"/>
<path d="M165.652 95.4305C165.652 98.8098 162.926 101.545 159.568 101.545C156.211 101.545 153.485 98.8098 153.485 95.4305C153.485 92.0511 156.211 89.316 159.568 89.316C162.926 89.316 165.652 92.0511 165.652 95.4305Z" fill="#D0DAEE" stroke="url(#paint7_linear)" stroke-width="1.0891"/>
<path d="M141.977 92.1962C141.977 95.5755 139.251 98.3107 135.894 98.3107C132.536 98.3107 129.81 95.5755 129.81 92.1962C129.81 88.8169 132.536 86.0818 135.894 86.0818C139.251 86.0818 141.977 88.8169 141.977 92.1962Z" fill="#D0DAEE" stroke="url(#paint8_linear)" stroke-width="1.0891"/>
<path d="M184.79 102.859C184.79 106.238 182.064 108.973 178.707 108.973C175.349 108.973 172.623 106.238 172.623 102.859C172.623 99.4795 175.349 96.7444 178.707 96.7444C182.064 96.7444 184.79 99.4795 184.79 102.859Z" fill="#D0DAEE" stroke="url(#paint9_linear)" stroke-width="1.0891"/>
<path d="M155.235 110.285C155.235 113.139 152.933 115.448 150.098 115.448C147.264 115.448 144.962 113.139 144.962 110.285C144.962 107.431 147.264 105.122 150.098 105.122C152.933 105.122 155.235 107.431 155.235 110.285Z" fill="#D0DAEE" stroke="url(#paint10_linear)" stroke-width="1.0891"/>
<path d="M174.37 117.513C174.37 120.367 172.068 122.676 169.234 122.676C166.399 122.676 164.097 120.367 164.097 117.513C164.097 114.659 166.399 112.35 169.234 112.35C172.068 112.35 174.37 114.659 174.37 117.513Z" fill="#D0DAEE" stroke="url(#paint11_linear)" stroke-width="1.0891"/>
<path d="M131.753 106.852C131.753 109.706 129.45 112.015 126.616 112.015C123.781 112.015 121.479 109.706 121.479 106.852C121.479 103.998 123.781 101.689 126.616 101.689C129.45 101.689 131.753 103.998 131.753 106.852Z" fill="#D0DAEE" stroke="url(#paint12_linear)" stroke-width="1.0891"/>
<path d="M143.864 120.553C143.864 122.882 141.986 124.765 139.674 124.765C137.363 124.765 135.484 122.882 135.484 120.553C135.484 118.225 137.363 116.342 139.674 116.342C141.986 116.342 143.864 118.225 143.864 120.553Z" fill="#D0DAEE" stroke="url(#paint13_linear)" stroke-width="1.0891"/>
<path d="M151.453 134.259C151.453 136.272 149.829 137.9 147.831 137.9C145.833 137.9 144.209 136.272 144.209 134.259C144.209 132.246 145.833 130.618 147.831 130.618C149.829 130.618 151.453 132.246 151.453 134.259Z" fill="#D0DAEE" stroke="url(#paint14_linear)" stroke-width="1.0891"/>
<path d="M140.652 137.676C140.652 139.269 139.367 140.556 137.788 140.556C136.208 140.556 134.923 139.269 134.923 137.676C134.923 136.083 136.208 134.796 137.788 134.796C139.367 134.796 140.652 136.083 140.652 137.676Z" fill="#D0DAEE" stroke="url(#paint15_linear)" stroke-width="1.0891"/>
<path d="M132.505 127.019C132.505 129.032 130.881 130.66 128.883 130.66C126.885 130.66 125.261 129.032 125.261 127.019C125.261 125.005 126.885 123.377 128.883 123.377C130.881 123.377 132.505 125.005 132.505 127.019Z" fill="#D0DAEE" stroke="url(#paint16_linear)" stroke-width="1.0891"/>
<path d="M120.201 117.319C120.201 119.647 118.322 121.531 116.011 121.531C113.699 121.531 111.821 119.647 111.821 117.319C111.821 114.99 113.699 113.107 116.011 113.107C118.322 113.107 120.201 114.99 120.201 117.319Z" fill="#D0DAEE" stroke="url(#paint17_linear)" stroke-width="1.0891"/>
<path d="M120.011 81.545C120.011 83.8735 118.133 85.7568 115.821 85.7568C113.509 85.7568 111.631 83.8735 111.631 81.545C111.631 79.2164 113.509 77.3331 115.821 77.3331C118.133 77.3331 120.011 79.2164 120.011 81.545Z" fill="#D0DAEE" stroke="url(#paint18_linear)" stroke-width="1.0891"/>
<path d="M121.519 65.3673C121.519 67.3806 119.895 69.0084 117.897 69.0084C115.899 69.0084 114.275 67.3806 114.275 65.3673C114.275 63.354 115.899 61.7262 117.897 61.7262C119.895 61.7262 121.519 63.354 121.519 65.3673Z" fill="#D0DAEE" stroke="url(#paint19_linear)" stroke-width="1.0891"/>
<path d="M125.315 52.4304C125.315 54.0234 124.03 55.3105 122.451 55.3105C120.871 55.3105 119.586 54.0234 119.586 52.4304C119.586 50.8374 120.871 49.5503 122.451 49.5503C124.03 49.5503 125.315 50.8374 125.315 52.4304Z" fill="#D0DAEE" stroke="url(#paint20_linear)" stroke-width="1.0891"/>
<path d="M118.117 45.1999C118.117 47.2132 116.493 48.841 114.495 48.841C112.497 48.841 110.873 47.2132 110.873 45.1999C110.873 43.1866 112.497 41.5588 114.495 41.5588C116.493 41.5588 118.117 43.1866 118.117 45.1999Z" fill="#D0DAEE" stroke="url(#paint21_linear)" stroke-width="1.0891"/>
<path d="M162.812 127.782C162.812 130.111 160.934 131.994 158.623 131.994C156.311 131.994 154.433 130.111 154.433 127.782C154.433 125.454 156.311 123.57 158.623 123.57C160.934 123.57 162.812 125.454 162.812 127.782Z" fill="#D0DAEE" stroke="url(#paint22_linear)" stroke-width="1.0891"/>
<path d="M107.892 39.112C107.892 41.4405 106.014 43.3239 103.702 43.3239C101.391 43.3239 99.5123 41.4405 99.5123 39.112C99.5123 36.7834 101.391 34.9001 103.702 34.9001C106.014 34.9001 107.892 36.7834 107.892 39.112Z" fill="#D0DAEE" stroke="url(#paint23_linear)" stroke-width="1.0891"/>
<path d="M111.106 59.2805C111.106 61.609 109.228 63.4924 106.916 63.4924C104.605 63.4924 102.726 61.609 102.726 59.2805C102.726 56.9519 104.605 55.0686 106.916 55.0686C109.228 55.0686 111.106 56.9519 111.106 59.2805Z" fill="#D0DAEE" stroke="url(#paint24_linear)" stroke-width="1.0891"/>
<path d="M106.753 77.5422C106.753 80.3961 104.45 82.7054 101.616 82.7054C98.7813 82.7054 96.4791 80.3961 96.4791 77.5422C96.4791 74.6883 98.7813 72.379 101.616 72.379C104.45 72.379 106.753 74.6883 106.753 77.5422Z" fill="#D0DAEE" stroke="url(#paint25_linear)" stroke-width="1.0891"/>
<path d="M90.4611 76.591C90.4611 79.9703 87.735 82.7054 84.3775 82.7054C81.02 82.7054 78.2939 79.9703 78.2939 76.591C78.2939 73.2117 81.02 70.4765 84.3775 70.4765C87.735 70.4765 90.4611 73.2117 90.4611 76.591Z" fill="#D0DAEE" stroke="url(#paint26_linear)" stroke-width="1.0891"/>
<path d="M71.3354 80.2058C71.3354 84.1104 68.1853 87.2715 64.3049 87.2715C60.4244 87.2715 57.2744 84.1104 57.2744 80.2058C57.2744 76.3011 60.4244 73.14 64.3049 73.14C68.1853 73.14 71.3354 76.3011 71.3354 80.2058Z" fill="#D0DAEE" stroke="url(#paint27_linear)" stroke-width="1.0891"/>
<path d="M50.6842 89.7307C50.6842 94.3709 46.9407 98.1283 42.3281 98.1283C37.7155 98.1283 33.972 94.3709 33.972 89.7307C33.972 85.0905 37.7155 81.3332 42.3281 81.3332C46.9407 81.3332 50.6842 85.0905 50.6842 89.7307Z" fill="#D0DAEE" stroke="url(#paint28_linear)" stroke-width="1.0891"/>
<path d="M29.6653 106.284C29.6653 111.869 25.1587 116.393 19.6048 116.393C14.0509 116.393 9.54431 111.869 9.54431 106.284C9.54431 100.698 14.0509 96.1736 19.6048 96.1736C25.1587 96.1736 29.6653 100.698 29.6653 106.284Z" fill="#D0DAEE" stroke="url(#paint29_linear)" stroke-width="1.0891"/>
<path d="M41.7827 67.4548C41.7827 72.0951 38.0391 75.8524 33.4265 75.8524C28.814 75.8524 25.0704 72.0951 25.0704 67.4548C25.0704 62.8146 28.814 59.0573 33.4265 59.0573C38.0391 59.0573 41.7827 62.8146 41.7827 67.4548Z" fill="#D0DAEE" stroke="url(#paint30_linear)" stroke-width="1.0891"/>
<path d="M62.4322 57.9462C62.4322 61.8509 59.2822 65.0119 55.4017 65.0119C51.5213 65.0119 48.3712 61.8509 48.3712 57.9462C48.3712 54.0415 51.5213 50.8804 55.4017 50.8804C59.2822 50.8804 62.4322 54.0415 62.4322 57.9462Z" fill="#D0DAEE" stroke="url(#paint31_linear)" stroke-width="1.0891"/>
<path d="M59.2142 37.7788C59.2142 41.6835 56.0642 44.8445 52.1838 44.8445C48.3033 44.8445 45.1533 41.6835 45.1533 37.7788C45.1533 33.8741 48.3033 30.713 52.1837 30.713C56.0642 30.713 59.2142 33.8741 59.2142 37.7788Z" fill="#D0DAEE" stroke="url(#paint32_linear)" stroke-width="1.0891"/>
<path d="M78.34 34.1683C78.34 37.5476 75.6138 40.2828 72.2563 40.2828C68.8988 40.2828 66.1727 37.5476 66.1727 34.1683C66.1727 30.789 68.8988 28.0539 72.2563 28.0539C75.6138 28.0539 78.34 30.789 78.34 34.1683Z" fill="#D0DAEE" stroke="url(#paint33_linear)" stroke-width="1.0891"/>
<path d="M94.626 35.1184C94.626 37.9724 92.3238 40.2816 89.4893 40.2816C86.6547 40.2816 84.3525 37.9724 84.3525 35.1184C84.3525 32.2645 86.6547 29.9553 89.4893 29.9553C92.3238 29.9553 94.626 32.2645 94.626 35.1184Z" fill="#D0DAEE" stroke="url(#paint34_linear)" stroke-width="1.0891"/>
<path d="M97.8456 55.2859C97.8456 58.1398 95.5434 60.449 92.7089 60.449C89.8743 60.449 87.5721 58.1398 87.5721 55.2859C87.5721 52.4319 89.8743 50.1227 92.7089 50.1227C95.5434 50.1227 97.8456 52.4319 97.8456 55.2859Z" fill="#D0DAEE" stroke="url(#paint35_linear)" stroke-width="1.0891"/>
<path d="M81.5687 54.5249C81.5687 57.9042 78.8426 60.6394 75.4851 60.6394C72.1276 60.6394 69.4015 57.9042 69.4015 54.5249C69.4015 51.1456 72.1276 48.4104 75.4851 48.4104C78.8426 48.4104 81.5687 51.1456 81.5687 54.5249Z" fill="#D0DAEE" stroke="url(#paint36_linear)" stroke-width="1.0891"/>
<path d="M59.5963 108.375C59.5963 109.968 58.3116 111.255 56.7321 111.255C55.1526 111.255 53.8679 109.968 53.8679 108.375C53.8679 106.782 55.1526 105.495 56.7321 105.495C58.3116 105.495 59.5963 106.782 59.5963 108.375Z" fill="#D0DAEE" stroke="url(#paint37_linear)" stroke-width="1.0891"/>
<path d="M73.9788 105.902C73.9788 107.915 72.3549 109.543 70.3571 109.543C68.3592 109.543 66.7353 107.915 66.7353 105.902C66.7353 103.889 68.3592 102.261 70.3571 102.261C72.3549 102.261 73.9788 103.889 73.9788 105.902Z" fill="#D0DAEE" stroke="url(#paint38_linear)" stroke-width="1.0891"/>
<path d="M89.5143 99.6278C89.5143 101.956 87.636 103.84 85.3244 103.84C83.0128 103.84 81.1346 101.956 81.1346 99.6278C81.1346 97.2992 83.0128 95.4159 85.3244 95.4159C87.636 95.4159 89.5143 97.2992 89.5143 99.6278Z" fill="#D0DAEE" stroke="url(#paint39_linear)" stroke-width="1.0891"/>
<path d="M94.0634 113.89C94.0634 116.744 91.7612 119.054 88.9266 119.054C86.0921 119.054 83.7899 116.744 83.7899 113.89C83.7899 111.037 86.0921 108.727 88.9266 108.727C91.7612 108.727 94.0634 111.037 94.0634 113.89Z" fill="#D0DAEE" stroke="url(#paint40_linear)" stroke-width="1.0891"/>
<path d="M74.9297 118.456C74.9297 120.785 73.0514 122.668 70.7398 122.668C68.4282 122.668 66.55 120.785 66.55 118.456C66.55 116.128 68.4282 114.244 70.7398 114.244C73.0514 114.244 74.9297 116.128 74.9297 118.456Z" fill="#D0DAEE" stroke="url(#paint41_linear)" stroke-width="1.0891"/>
<path d="M58.2586 118.842C58.2586 120.855 56.6348 122.483 54.6369 122.483C52.6391 122.483 51.0152 120.855 51.0152 118.842C51.0152 116.828 52.6391 115.201 54.6369 115.201C56.6348 115.201 58.2586 116.828 58.2586 118.842Z" fill="#D0DAEE" stroke="url(#paint42_linear)" stroke-width="1.0891"/>
<path d="M59.0242 131.393C59.0242 133.722 57.1459 135.605 54.8343 135.605C52.5227 135.605 50.6445 133.722 50.6445 131.393C50.6445 129.065 52.5227 127.181 54.8343 127.181C57.1459 127.181 59.0242 129.065 59.0242 131.393Z" fill="#D0DAEE" stroke="url(#paint43_linear)" stroke-width="1.0891"/>
<path d="M79.2891 132.922C79.2891 135.776 76.9869 138.085 74.1524 138.085C71.3178 138.085 69.0156 135.776 69.0156 132.922C69.0156 130.068 71.3178 127.759 74.1523 127.759C76.9869 127.759 79.2891 130.068 79.2891 132.922Z" fill="#D0DAEE" stroke="url(#paint44_linear)" stroke-width="1.0891"/>
<path d="M102.778 129.492C102.778 132.871 100.052 135.606 96.6949 135.606C93.3374 135.606 90.6113 132.871 90.6113 129.492C90.6113 126.113 93.3374 123.377 96.6949 123.377C100.052 123.377 102.778 126.113 102.778 129.492Z" fill="#D0DAEE" stroke="url(#paint45_linear)" stroke-width="1.0891"/>
<path d="M116.978 145.093C116.978 148.998 113.828 152.159 109.947 152.159C106.067 152.159 102.917 148.998 102.917 145.093C102.917 141.189 106.067 138.028 109.947 138.028C113.828 138.028 116.978 141.189 116.978 145.093Z" fill="#D0DAEE" stroke="url(#paint46_linear)" stroke-width="1.0891"/>
<path d="M88.1878 148.329C88.1878 151.709 85.4617 154.444 82.1042 154.444C78.7467 154.444 76.0206 151.709 76.0206 148.329C76.0206 144.95 78.7467 142.215 82.1042 142.215C85.4617 142.215 88.1878 144.95 88.1878 148.329Z" fill="#D0DAEE" stroke="url(#paint47_linear)" stroke-width="1.0891"/>
<path d="M72.4699 161.271C72.4699 164.65 69.7438 167.385 66.3863 167.385C63.0288 167.385 60.3027 164.65 60.3027 161.271C60.3027 157.892 63.0288 155.157 66.3863 155.157C69.7438 155.157 72.4699 157.892 72.4699 161.271Z" fill="#D0DAEE" stroke="url(#paint48_linear)" stroke-width="1.0891"/>
<path d="M86.4826 177.072C86.4826 180.977 83.3326 184.138 79.4521 184.138C75.5717 184.138 72.4216 180.977 72.4216 177.072C72.4216 173.167 75.5717 170.006 79.4521 170.006C83.3326 170.006 86.4826 173.167 86.4826 177.072Z" fill="#D0DAEE" stroke="url(#paint49_linear)" stroke-width="1.0891"/>
<path d="M122.657 178.775C122.657 183.415 118.914 187.172 114.301 187.172C109.688 187.172 105.945 183.415 105.945 178.775C105.945 174.134 109.688 170.377 114.301 170.377C118.914 170.377 122.657 174.134 122.657 178.775Z" fill="#D0DAEE" stroke="url(#paint50_linear)" stroke-width="1.0891"/>
<path d="M102.203 164.127C102.203 168.032 99.0527 171.193 95.1723 171.193C91.2918 171.193 88.1418 168.032 88.1418 164.127C88.1418 160.222 91.2918 157.061 95.1723 157.061C99.0527 157.061 102.203 160.222 102.203 164.127Z" fill="#D0DAEE" stroke="url(#paint51_linear)" stroke-width="1.0891"/>
<path d="M137.247 159.748C137.247 164.388 133.503 168.145 128.891 168.145C124.278 168.145 120.534 164.388 120.534 159.748C120.534 155.107 124.278 151.35 128.891 151.35C133.503 151.35 137.247 155.107 137.247 159.748Z" fill="#D0DAEE" stroke="url(#paint52_linear)" stroke-width="1.0891"/>
<path d="M63.5673 145.86C63.5673 148.714 61.2651 151.023 58.4305 151.023C55.596 151.023 53.2938 148.714 53.2938 145.86C53.2938 143.006 55.596 140.697 58.4305 140.697C61.2651 140.697 63.5673 143.006 63.5673 145.86Z" fill="#D0DAEE" stroke="url(#paint53_linear)" stroke-width="1.0891"/>
</g>
<defs>
<filter id="filter0_d" x="0.418795" y="0.799301" width="212.41" height="206.033" filterUnits="userSpaceOnUse" color-interpolation-filters="sRGB">
<feFlood flood-opacity="0" result="BackgroundImageFix"/>
<feColorMatrix in="SourceAlpha" type="matrix" values="0 0 0 0 0 0 0 0 0 0 0 0 0 0 0 0 0 0 127 0" result="hardAlpha"/>
<feOffset dx="5.57737" dy="4.95766"/>
<feGaussianBlur stdDeviation="7.07916"/>
<feColorMatrix type="matrix" values="0 0 0 0 0.0857812 0 0 0 0 0.10262 0 0 0 0 0.254167 0 0 0 1 0"/>
<feBlend mode="normal" in2="BackgroundImageFix" result="effect1_dropShadow"/>
<feBlend mode="normal" in="SourceGraphic" in2="effect1_dropShadow" result="shape"/>
</filter>
<linearGradient id="paint0_linear" x1="142.901" y1="9.99997" x2="142.901" y2="31.3088" gradientUnits="userSpaceOnUse">
<stop stop-color="white"/>
<stop offset="0.359375" stop-color="white" stop-opacity="0"/>
</linearGradient>
<linearGradient id="paint1_linear" x1="154.832" y1="160.511" x2="154.832" y2="181.82" gradientUnits="userSpaceOnUse">
<stop stop-color="white"/>
<stop offset="0.359375" stop-color="white" stop-opacity="0"/>
</linearGradient>
<linearGradient id="paint2_linear" x1="145.935" y1="40.0663" x2="145.935" y2="57.9504" gradientUnits="userSpaceOnUse">
<stop stop-color="white"/>
<stop offset="0.359375" stop-color="white" stop-opacity="0"/>
</linearGradient>
<linearGradient id="paint3_linear" x1="169.61" y1="43.4869" x2="169.61" y2="61.3711" gradientUnits="userSpaceOnUse">
<stop stop-color="white"/>
<stop offset="0.359375" stop-color="white" stop-opacity="0"/>
</linearGradient>
<linearGradient id="paint4_linear" x1="142.909" y1="65.3698" x2="142.909" y2="80.5904" gradientUnits="userSpaceOnUse">
<stop stop-color="white"/>
<stop offset="0.359375" stop-color="white" stop-opacity="0"/>
</linearGradient>
<linearGradient id="paint5_linear" x1="166.579" y1="68.604" x2="166.579" y2="83.8246" gradientUnits="userSpaceOnUse">
<stop stop-color="white"/>
<stop offset="0.359375" stop-color="white" stop-opacity="0"/>
</linearGradient>
<linearGradient id="paint6_linear" x1="185.518" y1="76.0308" x2="185.518" y2="91.2514" gradientUnits="userSpaceOnUse">
<stop stop-color="white"/>
<stop offset="0.359375" stop-color="white" stop-opacity="0"/>
</linearGradient>
<linearGradient id="paint7_linear" x1="159.568" y1="88.7714" x2="159.568" y2="102.089" gradientUnits="userSpaceOnUse">
<stop stop-color="white"/>
<stop offset="0.359375" stop-color="white" stop-opacity="0"/>
</linearGradient>
<linearGradient id="paint8_linear" x1="135.894" y1="85.5372" x2="135.894" y2="98.8552" gradientUnits="userSpaceOnUse">
<stop stop-color="white"/>
<stop offset="0.359375" stop-color="white" stop-opacity="0"/>
</linearGradient>
<linearGradient id="paint9_linear" x1="178.707" y1="96.1998" x2="178.707" y2="109.518" gradientUnits="userSpaceOnUse">
<stop stop-color="white"/>
<stop offset="0.359375" stop-color="white" stop-opacity="0"/>
</linearGradient>
<linearGradient id="paint10_linear" x1="150.098" y1="104.577" x2="150.098" y2="115.993" gradientUnits="userSpaceOnUse">
<stop stop-color="white"/>
<stop offset="0.359375" stop-color="white" stop-opacity="0"/>
</linearGradient>
<linearGradient id="paint11_linear" x1="169.234" y1="111.806" x2="169.234" y2="123.221" gradientUnits="userSpaceOnUse">
<stop stop-color="white"/>
<stop offset="0.359375" stop-color="white" stop-opacity="0"/>
</linearGradient>
<linearGradient id="paint12_linear" x1="126.616" y1="101.144" x2="126.616" y2="112.56" gradientUnits="userSpaceOnUse">
<stop stop-color="white"/>
<stop offset="0.359375" stop-color="white" stop-opacity="0"/>
</linearGradient>
<linearGradient id="paint13_linear" x1="139.674" y1="115.797" x2="139.674" y2="125.31" gradientUnits="userSpaceOnUse">
<stop stop-color="white"/>
<stop offset="0.359375" stop-color="white" stop-opacity="0"/>
</linearGradient>
<linearGradient id="paint14_linear" x1="147.831" y1="130.073" x2="147.831" y2="138.445" gradientUnits="userSpaceOnUse">
<stop stop-color="white"/>
<stop offset="0.359375" stop-color="white" stop-opacity="0"/>
</linearGradient>
<linearGradient id="paint15_linear" x1="137.788" y1="134.251" x2="137.788" y2="141.1" gradientUnits="userSpaceOnUse">
<stop stop-color="white"/>
<stop offset="0.359375" stop-color="white" stop-opacity="0"/>
</linearGradient>
<linearGradient id="paint16_linear" x1="128.883" y1="122.833" x2="128.883" y2="131.204" gradientUnits="userSpaceOnUse">
<stop stop-color="white"/>
<stop offset="0.359375" stop-color="white" stop-opacity="0"/>
</linearGradient>
<linearGradient id="paint17_linear" x1="116.011" y1="112.562" x2="116.011" y2="122.075" gradientUnits="userSpaceOnUse">
<stop stop-color="white"/>
<stop offset="0.359375" stop-color="white" stop-opacity="0"/>
</linearGradient>
<linearGradient id="paint18_linear" x1="115.821" y1="76.7885" x2="115.821" y2="86.3014" gradientUnits="userSpaceOnUse">
<stop stop-color="white"/>
<stop offset="0.359375" stop-color="white" stop-opacity="0"/>
</linearGradient>
<linearGradient id="paint19_linear" x1="117.897" y1="61.1816" x2="117.897" y2="69.553" gradientUnits="userSpaceOnUse">
<stop stop-color="white"/>
<stop offset="0.359375" stop-color="white" stop-opacity="0"/>
</linearGradient>
<linearGradient id="paint20_linear" x1="122.451" y1="49.0058" x2="122.451" y2="55.855" gradientUnits="userSpaceOnUse">
<stop stop-color="white"/>
<stop offset="0.359375" stop-color="white" stop-opacity="0"/>
</linearGradient>
<linearGradient id="paint21_linear" x1="114.495" y1="41.0142" x2="114.495" y2="49.3856" gradientUnits="userSpaceOnUse">
<stop stop-color="white"/>
<stop offset="0.359375" stop-color="white" stop-opacity="0"/>
</linearGradient>
<linearGradient id="paint22_linear" x1="158.623" y1="123.026" x2="158.623" y2="132.539" gradientUnits="userSpaceOnUse">
<stop stop-color="white"/>
<stop offset="0.359375" stop-color="white" stop-opacity="0"/>
</linearGradient>
<linearGradient id="paint23_linear" x1="103.702" y1="34.3555" x2="103.702" y2="43.8684" gradientUnits="userSpaceOnUse">
<stop stop-color="white"/>
<stop offset="0.359375" stop-color="white" stop-opacity="0"/>
</linearGradient>
<linearGradient id="paint24_linear" x1="106.916" y1="54.524" x2="106.916" y2="64.0369" gradientUnits="userSpaceOnUse">
<stop stop-color="white"/>
<stop offset="0.359375" stop-color="white" stop-opacity="0"/>
</linearGradient>
<linearGradient id="paint25_linear" x1="101.616" y1="71.8345" x2="101.616" y2="83.2499" gradientUnits="userSpaceOnUse">
<stop stop-color="white"/>
<stop offset="0.359375" stop-color="white" stop-opacity="0"/>
</linearGradient>
<linearGradient id="paint26_linear" x1="84.3775" y1="69.932" x2="84.3775" y2="83.25" gradientUnits="userSpaceOnUse">
<stop stop-color="white"/>
<stop offset="0.359375" stop-color="white" stop-opacity="0"/>
</linearGradient>
<linearGradient id="paint27_linear" x1="64.3049" y1="72.5955" x2="64.3049" y2="87.816" gradientUnits="userSpaceOnUse">
<stop stop-color="white"/>
<stop offset="0.359375" stop-color="white" stop-opacity="0"/>
</linearGradient>
<linearGradient id="paint28_linear" x1="42.3281" y1="80.7886" x2="42.3281" y2="98.6728" gradientUnits="userSpaceOnUse">
<stop stop-color="white"/>
<stop offset="0.359375" stop-color="white" stop-opacity="0"/>
</linearGradient>
<linearGradient id="paint29_linear" x1="19.6048" y1="95.6291" x2="19.6048" y2="116.938" gradientUnits="userSpaceOnUse">
<stop stop-color="white"/>
<stop offset="0.359375" stop-color="white" stop-opacity="0"/>
</linearGradient>
<linearGradient id="paint30_linear" x1="33.4265" y1="58.5127" x2="33.4265" y2="76.3969" gradientUnits="userSpaceOnUse">
<stop stop-color="white"/>
<stop offset="0.359375" stop-color="white" stop-opacity="0"/>
</linearGradient>
<linearGradient id="paint31_linear" x1="55.4017" y1="50.3359" x2="55.4017" y2="65.5565" gradientUnits="userSpaceOnUse">
<stop stop-color="white"/>
<stop offset="0.359375" stop-color="white" stop-opacity="0"/>
</linearGradient>
<linearGradient id="paint32_linear" x1="52.1837" y1="30.1685" x2="52.1837" y2="45.3891" gradientUnits="userSpaceOnUse">
<stop stop-color="white"/>
<stop offset="0.359375" stop-color="white" stop-opacity="0"/>
</linearGradient>
<linearGradient id="paint33_linear" x1="72.2563" y1="27.5093" x2="72.2563" y2="40.8273" gradientUnits="userSpaceOnUse">
<stop stop-color="white"/>
<stop offset="0.359375" stop-color="white" stop-opacity="0"/>
</linearGradient>
<linearGradient id="paint34_linear" x1="89.4893" y1="29.4107" x2="89.4893" y2="40.8262" gradientUnits="userSpaceOnUse">
<stop stop-color="white"/>
<stop offset="0.359375" stop-color="white" stop-opacity="0"/>
</linearGradient>
<linearGradient id="paint35_linear" x1="92.7089" y1="49.5781" x2="92.7089" y2="60.9936" gradientUnits="userSpaceOnUse">
<stop stop-color="white"/>
<stop offset="0.359375" stop-color="white" stop-opacity="0"/>
</linearGradient>
<linearGradient id="paint36_linear" x1="75.4851" y1="47.8659" x2="75.4851" y2="61.1839" gradientUnits="userSpaceOnUse">
<stop stop-color="white"/>
<stop offset="0.359375" stop-color="white" stop-opacity="0"/>
</linearGradient>
<linearGradient id="paint37_linear" x1="56.7321" y1="104.951" x2="56.7321" y2="111.8" gradientUnits="userSpaceOnUse">
<stop stop-color="white"/>
<stop offset="0.359375" stop-color="white" stop-opacity="0"/>
</linearGradient>
<linearGradient id="paint38_linear" x1="70.3571" y1="101.716" x2="70.3571" y2="110.088" gradientUnits="userSpaceOnUse">
<stop stop-color="white"/>
<stop offset="0.359375" stop-color="white" stop-opacity="0"/>
</linearGradient>
<linearGradient id="paint39_linear" x1="85.3244" y1="94.8713" x2="85.3244" y2="104.384" gradientUnits="userSpaceOnUse">
<stop stop-color="white"/>
<stop offset="0.359375" stop-color="white" stop-opacity="0"/>
</linearGradient>
<linearGradient id="paint40_linear" x1="88.9266" y1="108.183" x2="88.9266" y2="119.598" gradientUnits="userSpaceOnUse">
<stop stop-color="white"/>
<stop offset="0.359375" stop-color="white" stop-opacity="0"/>
</linearGradient>
<linearGradient id="paint41_linear" x1="70.7398" y1="113.7" x2="70.7398" y2="123.213" gradientUnits="userSpaceOnUse">
<stop stop-color="white"/>
<stop offset="0.359375" stop-color="white" stop-opacity="0"/>
</linearGradient>
<linearGradient id="paint42_linear" x1="54.6369" y1="114.656" x2="54.6369" y2="123.027" gradientUnits="userSpaceOnUse">
<stop stop-color="white"/>
<stop offset="0.359375" stop-color="white" stop-opacity="0"/>
</linearGradient>
<linearGradient id="paint43_linear" x1="54.8343" y1="126.637" x2="54.8343" y2="136.15" gradientUnits="userSpaceOnUse">
<stop stop-color="white"/>
<stop offset="0.359375" stop-color="white" stop-opacity="0"/>
</linearGradient>
<linearGradient id="paint44_linear" x1="74.1523" y1="127.214" x2="74.1523" y2="138.63" gradientUnits="userSpaceOnUse">
<stop stop-color="white"/>
<stop offset="0.359375" stop-color="white" stop-opacity="0"/>
</linearGradient>
<linearGradient id="paint45_linear" x1="96.6949" y1="122.833" x2="96.6949" y2="136.151" gradientUnits="userSpaceOnUse">
<stop stop-color="white"/>
<stop offset="0.359375" stop-color="white" stop-opacity="0"/>
</linearGradient>
<linearGradient id="paint46_linear" x1="109.947" y1="137.483" x2="109.947" y2="152.704" gradientUnits="userSpaceOnUse">
<stop stop-color="white"/>
<stop offset="0.359375" stop-color="white" stop-opacity="0"/>
</linearGradient>
<linearGradient id="paint47_linear" x1="82.1042" y1="141.67" x2="82.1042" y2="154.988" gradientUnits="userSpaceOnUse">
<stop stop-color="white"/>
<stop offset="0.359375" stop-color="white" stop-opacity="0"/>
</linearGradient>
<linearGradient id="paint48_linear" x1="66.3863" y1="154.612" x2="66.3863" y2="167.93" gradientUnits="userSpaceOnUse">
<stop stop-color="white"/>
<stop offset="0.359375" stop-color="white" stop-opacity="0"/>
</linearGradient>
<linearGradient id="paint49_linear" x1="79.4521" y1="169.462" x2="79.4521" y2="184.682" gradientUnits="userSpaceOnUse">
<stop stop-color="white"/>
<stop offset="0.359375" stop-color="white" stop-opacity="0"/>
</linearGradient>
<linearGradient id="paint50_linear" x1="114.301" y1="169.832" x2="114.301" y2="187.717" gradientUnits="userSpaceOnUse">
<stop stop-color="white"/>
<stop offset="0.359375" stop-color="white" stop-opacity="0"/>
</linearGradient>
<linearGradient id="paint51_linear" x1="95.1723" y1="156.517" x2="95.1723" y2="171.737" gradientUnits="userSpaceOnUse">
<stop stop-color="white"/>
<stop offset="0.359375" stop-color="white" stop-opacity="0"/>
</linearGradient>
<linearGradient id="paint52_linear" x1="128.891" y1="150.805" x2="128.891" y2="168.69" gradientUnits="userSpaceOnUse">
<stop stop-color="white"/>
<stop offset="0.359375" stop-color="white" stop-opacity="0"/>
</linearGradient>
<linearGradient id="paint53_linear" x1="58.4305" y1="140.153" x2="58.4305" y2="151.568" gradientUnits="userSpaceOnUse">
<stop stop-color="white"/>
<stop offset="0.359375" stop-color="white" stop-opacity="0"/>
</linearGradient>
</defs>
</svg>
