<svg width="32" height="32" viewBox="0 0 32 32" fill="none" xmlns="http://www.w3.org/2000/svg">
<path d="M21.8108 23.2927C22.2014 23.6832 22.8345 23.6832 23.225 23.2927L23.2926 23.2252C23.6831 22.8347 23.6831 22.2015 23.2926 21.811L17.4815 15.9998L23.2925 10.1888C23.683 9.79823 23.683 9.16506 23.2925 8.77453L23.225 8.70701C22.8345 8.31648 22.2013 8.31648 21.8108 8.70701L15.9998 14.5181L10.1887 8.70696C9.79819 8.31643 9.16503 8.31643 8.7745 8.70696L8.70699 8.77448C8.31646 9.165 8.31647 9.79817 8.70699 10.1887L14.5181 15.9998L8.70695 21.811C8.31643 22.2016 8.31643 22.8347 8.70695 23.2253L8.77447 23.2928C9.16499 23.6833 9.79816 23.6833 10.1887 23.2928L15.9998 17.4816L21.8108 23.2927Z" fill="white"/>
</svg>
